<svg xmlns="http://www.w3.org/2000/svg" xmlns:xlink="http://www.w3.org/1999/xlink" width="49.927" height="54" viewBox="0 0 49.927 54">
  <defs>
    <clipPath id="clip-path">
      <rect id="Rectangle_20" data-name="Rectangle 20" width="42.359" height="49" fill="#04740c"/>
    </clipPath>
  </defs>
  <g id="Groupe_2631" data-name="Groupe 2631" transform="translate(-567 -3515)">
    <g id="Groupe_53" data-name="Groupe 53" transform="translate(574.568 3520)" opacity="0.07">
      <g id="Groupe_50" data-name="Groupe 50" clip-path="url(#clip-path)">
        <path id="Tracé_51" data-name="Tracé 51" d="M.583,19.507S-2.642-11.911,31.275,6.04c0,0,25.921,16.162-.645,37.879,0,0-30.564,22.329-30.048-24.412" transform="translate(-0.374 -0.375)" fill="#04740c"/>
        <path id="Tracé_52" data-name="Tracé 52" d="M.583,19.507S-2.642-11.911,31.275,6.04c0,0,25.921,16.162-.645,37.879C30.63,43.919.067,66.248.583,19.507Z" transform="translate(-0.374 -0.375)" fill="#04740c" stroke="#fff" stroke-width="1"/>
      </g>
    </g>
    <g id="amour" transform="translate(567.001 3515)">
      <path id="Tracé_4651" data-name="Tracé 4651" d="M124.587,352.561h-3.9a5.569,5.569,0,0,1-3.009-.881l-.233-.149a.7.7,0,1,0-.758,1.183l.233.149a6.971,6.971,0,0,0,3.767,1.1h3.2v7.45h-6.891a14.806,14.806,0,0,0-3.972.543l-10.006,2.788a7.708,7.708,0,0,1-6.129-.881l-10.405-6.483a.7.7,0,1,0-.743,1.193l10.4,6.483a9.111,9.111,0,0,0,7.248,1.042l10.006-2.788a13.4,13.4,0,0,1,3.6-.491h7.593a.7.7,0,0,0,.7-.7v-8.855a.7.7,0,0,0-.7-.7Z" transform="translate(-77.29 -318.433)"/>
      <path id="Tracé_4652" data-name="Tracé 4652" d="M6.673,302.231,2.4,299.568a2.1,2.1,0,0,1,2.182-3.594l.251.149,0,0,10.135,5.995a3.235,3.235,0,0,0,4.009,2.972l9.827-2.426a.7.7,0,0,0-.337-1.364l-9.827,2.426a1.832,1.832,0,0,1-.945-3.539l12.583-3.62a8.1,8.1,0,0,1,6.611.964.7.7,0,1,0,.758-1.183,9.508,9.508,0,0,0-7.757-1.131l-12.583,3.62a3.21,3.21,0,0,0-1.844,1.386l-4.788-6.6a3.42,3.42,0,0,0-5.987.852,3.508,3.508,0,0,0-3.036,6.28l4.273,2.662a.7.7,0,0,0,.743-1.193Zm.054-8.223a2.018,2.018,0,0,1,2.816.447l3.589,4.945-7.177-4.245a2,2,0,0,1,.771-1.147Z" transform="translate(0 -264.795)"/>
      <path id="Tracé_4653" data-name="Tracé 4653" d="M79.858,15.59a.7.7,0,0,0,.364-.925,11.264,11.264,0,0,1-.937-6.119c.568-4.134,3.18-6.792,6.987-7.111,3.465-.29,6.717,1.522,7.564,4.215a.706.706,0,0,0,1.346,0c.847-2.693,4.1-4.506,7.564-4.215,3.807.319,6.419,2.977,6.987,7.111a11.862,11.862,0,0,1-1.713,7.646,24.8,24.8,0,0,1-5.384,6.212,44.989,44.989,0,0,1-8.126,5.474c-1.611-.835-9.126-4.947-12.993-10.848a.7.7,0,0,0-1.181.768C84.876,24.728,93.822,29.115,94.2,29.3a.708.708,0,0,0,.617,0,45.1,45.1,0,0,0,8.717-5.811,26.233,26.233,0,0,0,5.7-6.581,13.232,13.232,0,0,0,1.9-8.552,9.73,9.73,0,0,0-2.981-6.081,8.858,8.858,0,0,0-5.285-2.24,9.924,9.924,0,0,0-5.519,1.132,7.587,7.587,0,0,0-2.836,2.608,7.588,7.588,0,0,0-2.836-2.608A9.923,9.923,0,0,0,86.154.035a8.859,8.859,0,0,0-5.285,2.239,9.731,9.731,0,0,0-2.981,6.081,12.642,12.642,0,0,0,1.042,6.872.706.706,0,0,0,.929.363Z" transform="translate(-70.507)"/>
    </g>
  </g>
</svg>
