<svg xmlns="http://www.w3.org/2000/svg" xmlns:xlink="http://www.w3.org/1999/xlink" width="49.115" height="54" viewBox="0 0 49.115 54">
  <defs>
    <clipPath id="clip-path">
      <rect id="Rectangle_20" data-name="Rectangle 20" width="40.138" height="47.367" fill="#04740c"/>
    </clipPath>
  </defs>
  <g id="Groupe_1680" data-name="Groupe 1680" transform="translate(-993 -3347)">
    <g id="Groupe_51" data-name="Groupe 51" transform="translate(1001.977 3353.633)" opacity="0.07">
      <g id="Groupe_50" data-name="Groupe 50" clip-path="url(#clip-path)">
        <path id="Tracé_51" data-name="Tracé 51" d="M.578,18.873S-2.477-11.5,29.662,5.855c0,0,24.562,15.624-.611,36.617,0,0-28.962,21.585-28.473-23.6" transform="translate(-0.381 -0.379)" fill="#04740c"/>
        <path id="Tracé_52" data-name="Tracé 52" d="M.578,18.873S-2.477-11.5,29.662,5.855c0,0,24.562,15.624-.611,36.617C29.051,42.472.089,64.057.578,18.873Z" transform="translate(-0.381 -0.379)" fill="#04740c" stroke="#fff" stroke-width="1"/>
      </g>
    </g>
    <g id="rigeur" transform="translate(993 3347)">
      <path id="Tracé_4129" data-name="Tracé 4129" d="M35.936,62.973l-.392-.334,1.2-1.2a.585.585,0,0,0-.826-.829l-1.2,1.2a10.116,10.116,0,0,1-1.34-1.9,9.829,9.829,0,0,1-.72-1.652,10.119,10.119,0,0,1-.519-2.651v-.023h1.7a.586.586,0,0,0,0-1.171h-1.7a10.159,10.159,0,0,1,2.585-6.226l1.192,1.194a.585.585,0,0,0,.826-.829L35.55,47.359a10.189,10.189,0,0,1,6.225-2.583v1.693a.585.585,0,1,0,1.171,0V44.776a10.64,10.64,0,0,1,1.812.268,10.227,10.227,0,0,1,4.418,2.314l-1.2,1.2a.586.586,0,0,0,.413,1,.578.578,0,0,0,.413-.171l1.2-1.2.233.271.233.291L36.111,63.107ZM29.166,55a13.088,13.088,0,0,0,4.842,10.211l1.266-1.267a11.409,11.409,0,0,1-1.038-16.951l.116-.114A11.4,11.4,0,0,1,51.3,47.912l1.266-1.266A13.193,13.193,0,0,0,29.166,55Zm12.465-16.29h1.457v1.946a14.16,14.16,0,0,0-1.457,0Zm-1.965-3.28h5.388v2.11H39.666Zm21.725,3.224a.584.584,0,0,0-.826,0L53.4,45.815a14.349,14.349,0,0,0-9.144-5.057v-2.05h.869a1.1,1.1,0,0,0,1.1-1.1V35.353a1.1,1.1,0,0,0-1.1-1.1H39.592a1.1,1.1,0,0,0-1.1,1.1v2.258a1.1,1.1,0,0,0,1.1,1.1h.869V40.76a14.361,14.361,0,0,0-7.284,25.28l-7.014,7.016a.585.585,0,1,0,.826.828l34.4-34.4A.587.587,0,0,0,61.391,38.651ZM37.075,54.891a.586.586,0,0,0,.572.6l4.7.1a.589.589,0,0,0,.556-.811l-3.115-7.486a.588.588,0,0,0-1.086.45l2.771,6.658-3.8-.077A.582.582,0,0,0,37.075,54.891Zm28.4,16.69a.671.671,0,0,0,.668-.669V61.26L61.269,64.3a4.341,4.341,0,0,1-2.395.686h-1.9v.914a.585.585,0,1,1-1.171,0v-.914h-1.9a4.324,4.324,0,0,1-2.389-.686L46.637,61.26v9.652a.672.672,0,0,0,.673.669H65.476Zm-13.97-12.62H46.637v.919l5.5,3.432a3.156,3.156,0,0,0,1.769.508h1.9V62.89a.585.585,0,1,1,1.171,0v.929h1.9a3.185,3.185,0,0,0,1.775-.508l5.494-3.432v-.919H61.28l-.106.048-.021-.048h-9.52l-.026.048ZM53.138,55.8a1.215,1.215,0,0,1,1.134-.715h4.243a1.215,1.215,0,0,1,1.134.715l.948,1.99H52.189Zm13.594,1.99H61.889L60.7,55.3a2.374,2.374,0,0,0-2.188-1.382H54.271A2.382,2.382,0,0,0,52.078,55.3L50.891,57.79H46.055a.588.588,0,0,0-.588.585V70.912a1.844,1.844,0,0,0,1.844,1.84H65.476a1.843,1.843,0,0,0,1.838-1.84V58.375A.583.583,0,0,0,66.731,57.79Z" transform="translate(-25.991 -34.257)" fill="#04042c" fill-rule="evenodd"/>
    </g>
  </g>
</svg>
