<svg xmlns="http://www.w3.org/2000/svg" width="40.416" height="35" viewBox="0 0 40.416 35">
  <g id="Comités" transform="translate(-2 -6.688)">
    <path id="Tracé_16060" data-name="Tracé 16060" d="M15.926,36.847a.535.535,0,0,1-.115-.012.585.585,0,0,1-.45-.689l1.836-9.3a.577.577,0,0,1,.562-.468H35.938a.577.577,0,0,1,.562.468l1.836,9.293a.585.585,0,0,1-.449.689.574.574,0,0,1-.676-.458l-1.743-8.824H18.232l-1.744,8.829A.577.577,0,0,1,15.926,36.847Zm6.113,10.974H13.755a.569.569,0,0,1-.445-.215.594.594,0,0,1-.118-.487l1.357-6.853a.575.575,0,0,1,.677-.457.585.585,0,0,1,.448.691l-1.22,6.151h7.584a.585.585,0,0,1,0,1.17Zm17.906,0H31.656a.585.585,0,0,1,0-1.17h7.588L38.025,40.5a.585.585,0,0,1,.448-.691.575.575,0,0,1,.677.457l1.358,6.855a.594.594,0,0,1-.118.487.569.569,0,0,1-.445.215Z" transform="translate(-4.639 -8.638)" fill="#c3c3c3"/>
    <path id="Tracé_16061" data-name="Tracé 16061" d="M27.721,19.211a.577.577,0,0,1-.577-.577v-.207A3.035,3.035,0,0,0,24.109,15.4h-3.8a3.035,3.035,0,0,0-3.034,3.029v.207a.577.577,0,0,1-1.155,0v-.207a4.191,4.191,0,0,1,4.189-4.184h3.8A4.191,4.191,0,0,1,28.3,18.426v.207A.577.577,0,0,1,27.721,19.211Zm-5.513-5.991a3.266,3.266,0,1,1,3.266-3.266A3.266,3.266,0,0,1,22.208,13.219Zm0-5.376a2.111,2.111,0,1,0,2.111,2.111,2.111,2.111,0,0,0-2.111-2.111ZM12.662,32.456H2.577A.577.577,0,0,1,2,31.879V30.54a3.885,3.885,0,0,1,3.88-3.88H9.36a3.885,3.885,0,0,1,3.88,3.88v1.34A.577.577,0,0,1,12.662,32.456ZM3.155,31.3h8.93V30.54A2.728,2.728,0,0,0,9.36,27.815H5.88A2.728,2.728,0,0,0,3.155,30.54ZM7.62,25.823a3.038,3.038,0,1,1,3.038-3.038A3.038,3.038,0,0,1,7.62,25.823Zm0-4.92A1.883,1.883,0,1,0,9.5,22.785,1.883,1.883,0,0,0,7.62,20.9ZM41.838,32.456H31.753a.577.577,0,0,1-.577-.577V30.54a3.885,3.885,0,0,1,3.88-3.88h3.48a3.885,3.885,0,0,1,3.88,3.88v1.34A.577.577,0,0,1,41.838,32.456ZM32.331,31.3h8.93V30.54a2.728,2.728,0,0,0-2.725-2.725h-3.48a2.728,2.728,0,0,0-2.725,2.725ZM36.8,25.823a3.038,3.038,0,1,1,3.037-3.037A3.038,3.038,0,0,1,36.8,25.823Zm0-4.92a1.883,1.883,0,1,0,1.882,1.883A1.883,1.883,0,0,0,36.8,20.9ZM27.25,41.688H17.166a.577.577,0,0,1-.577-.577v-1.34a3.883,3.883,0,0,1,3.879-3.879h3.48a3.883,3.883,0,0,1,3.879,3.879v1.34A.577.577,0,0,1,27.25,41.688Zm-9.507-1.155h8.93v-.763a2.727,2.727,0,0,0-2.725-2.725h-3.48a2.727,2.727,0,0,0-2.725,2.725Zm4.465-5.479a3.038,3.038,0,1,1,3.038-3.038,3.038,3.038,0,0,1-3.038,3.038Zm0-4.919a1.883,1.883,0,1,0,1.883,1.883,1.883,1.883,0,0,0-1.883-1.883Z" fill="#c3c3c3"/>
  </g>
</svg>
