<svg xmlns="http://www.w3.org/2000/svg" xmlns:xlink="http://www.w3.org/1999/xlink" width="239.793" height="859.114" viewBox="0 0 239.793 859.114">
  <defs>
    <clipPath id="clip-path">
      <rect id="Rectangle_709" data-name="Rectangle 709" width="239.793" height="859.114" fill="#7abb47"/>
    </clipPath>
  </defs>
  <g id="Groupe_3138" data-name="Groupe 3138" clip-path="url(#clip-path)">
    <path id="Tracé_16162" data-name="Tracé 16162" d="M113.527,770.666a18.93,18.93,0,0,1,6.937-3.456,21.135,21.135,0,0,1,7.525-.559,20.767,20.767,0,0,1,3.71.728q.907.267,1.787.617t1.758.761a19.775,19.775,0,0,1,3.284,2.025,22.279,22.279,0,0,1,2.953,2.665,21.392,21.392,0,0,1,5.608,14.077,19.661,19.661,0,0,1-5.311,14.05,17.932,17.932,0,0,1-14.1,5.479,22.011,22.011,0,0,1-14.908-7.3,22.781,22.781,0,0,1-2.723-3.589,24.167,24.167,0,0,1-1.9-3.889q-.378-.992-.657-1.995t-.431-2.032a20.916,20.916,0,0,1-.271-4.027,18.153,18.153,0,0,1,1.854-7.523,17.572,17.572,0,0,1,4.883-6.03" transform="translate(-49.377 -354.462)" fill="#04740c"/>
    <path id="Tracé_16163" data-name="Tracé 16163" d="M51.688,675.627a16.865,16.865,0,0,1,6.707-1.4,18.614,18.614,0,0,1,6.586,1.163,18.127,18.127,0,0,1,2.985,1.428,19.593,19.593,0,0,1,2.745,1.915,18.683,18.683,0,0,1,6.415,11.788,17.894,17.894,0,0,1,.139,3.349,22.163,22.163,0,0,1-.446,3.314A17.561,17.561,0,0,1,69.374,708.2,15.764,15.764,0,0,1,56.1,710.038a16.075,16.075,0,0,1-3.3-1.375,20.749,20.749,0,0,1-10.467-15.652,17.531,17.531,0,0,1,.578-7.266,16.184,16.184,0,0,1,3.23-6.047,15.482,15.482,0,0,1,5.548-4.072" transform="translate(-19.508 -311.777)" fill="#04740c"/>
    <path id="Tracé_16164" data-name="Tracé 16164" d="M20.322,566.476a15.94,15.94,0,0,1,13.095,5.568c.311.364.6.743.879,1.133s.57.791.826,1.2a14.612,14.612,0,0,1,2.036,5.527,16.2,16.2,0,0,1-2.107,11.272,15.592,15.592,0,0,1-9.184,7.08,13.494,13.494,0,0,1-11.451-2.107A17.2,17.2,0,0,1,7.588,585.08a19.674,19.674,0,0,1,.135-6.9q.165-.812.4-1.587a15.6,15.6,0,0,1,.588-1.515,16.352,16.352,0,0,1,1.549-2.744,13.446,13.446,0,0,1,10.062-5.854" transform="translate(-3.398 -261.928)" fill="#04740c"/>
    <path id="Tracé_16165" data-name="Tracé 16165" d="M28.249,452.766a12.424,12.424,0,0,1,4.544,2.278,13.739,13.739,0,0,1,3.3,3.745,14.273,14.273,0,0,1,1.744,9.752,13.023,13.023,0,0,1-1.893,4.753A13.413,13.413,0,0,1,23.2,479.785a11.578,11.578,0,0,1-8.424-5.19,14.5,14.5,0,0,1-2.1-4.974,16.181,16.181,0,0,1,.032-5.781,14.252,14.252,0,0,1,5.8-9.266,12.006,12.006,0,0,1,4.637-2,11.547,11.547,0,0,1,5.095.188" transform="translate(-5.751 -209.189)" fill="#04740c"/>
    <path id="Tracé_16166" data-name="Tracé 16166" d="M71.832,346.668a10.625,10.625,0,0,1,4.933,6.54,11.537,11.537,0,0,1-11.245,14.562,10.08,10.08,0,0,1-4.089-.92,9.686,9.686,0,0,1-3.356-2.547,10.034,10.034,0,0,1-1.937-3.664,12.087,12.087,0,0,1,7.58-14.667,9.731,9.731,0,0,1,8.114.7" transform="translate(-25.754 -159.719)" fill="#04740c"/>
    <path id="Tracé_16167" data-name="Tracé 16167" d="M139.4,252.887a8.224,8.224,0,0,1,2.863,5.787,9.059,9.059,0,0,1-2.057,6.352,9.709,9.709,0,0,1-2.666,2.242,8.8,8.8,0,0,1-3.1,1.121,8.1,8.1,0,0,1-6.236-1.526,7.92,7.92,0,0,1-3.053-5.7,8.936,8.936,0,0,1,2.088-6.57,9.5,9.5,0,0,1,5.973-3.442,7.809,7.809,0,0,1,6.189,1.731" transform="translate(-57.856 -116.101)" fill="#04740c"/>
    <path id="Tracé_16168" data-name="Tracé 16168" d="M221.365,170.417a6.573,6.573,0,0,1-9.5,9.034,6.573,6.573,0,0,1,9.5-9.034" transform="translate(-97.226 -77.958)" fill="#04740c"/>
    <path id="Tracé_16169" data-name="Tracé 16169" d="M219.435,37.05a21.018,21.018,0,0,1-6.845,5.269,23.24,23.24,0,0,1-8.124,2.214,23.805,23.805,0,0,1-16.214-4.588,23.468,23.468,0,0,1-9.026-14.074,23.108,23.108,0,0,1,2.63-16.48,19.159,19.159,0,0,1,14.2-9.18,24.833,24.833,0,0,1,18.028,4.862,24.562,24.562,0,0,1,9.827,15.72,20.467,20.467,0,0,1-.427,8.613,19.658,19.658,0,0,1-4.046,7.643" transform="translate(-82.642 -0.001)" fill="#04740c"/>
    <path id="Tracé_16170" data-name="Tracé 16170" d="M305.2,119.531a18.925,18.925,0,0,1-6.937,3.456,21.138,21.138,0,0,1-7.525.559,20.777,20.777,0,0,1-3.71-.728q-.907-.267-1.787-.617t-1.758-.761a19.785,19.785,0,0,1-3.284-2.025,22.276,22.276,0,0,1-2.953-2.665,21.389,21.389,0,0,1-5.608-14.077,19.662,19.662,0,0,1,5.31-14.051,17.935,17.935,0,0,1,14.1-5.478,22.011,22.011,0,0,1,14.908,7.3,22.781,22.781,0,0,1,2.723,3.589,24.147,24.147,0,0,1,1.9,3.889q.378.992.657,1.994t.431,2.032a20.915,20.915,0,0,1,.271,4.027,18.154,18.154,0,0,1-1.854,7.523,17.565,17.565,0,0,1-4.883,6.03" transform="translate(-125.611 -38.435)" fill="#04740c"/>
    <path id="Tracé_16171" data-name="Tracé 16171" d="M371.524,218.04a16.867,16.867,0,0,1-6.707,1.4,18.612,18.612,0,0,1-6.586-1.163,18.121,18.121,0,0,1-2.985-1.428,19.586,19.586,0,0,1-2.745-1.915,18.683,18.683,0,0,1-6.416-11.788,17.9,17.9,0,0,1-.139-3.35,22.088,22.088,0,0,1,.446-3.314,17.561,17.561,0,0,1,7.446-11.013,15.763,15.763,0,0,1,13.271-1.837,16.072,16.072,0,0,1,3.3,1.375,20.749,20.749,0,0,1,10.467,15.652,17.532,17.532,0,0,1-.578,7.267,16.189,16.189,0,0,1-3.23,6.047,15.488,15.488,0,0,1-5.548,4.072" transform="translate(-159.961 -84.591)" fill="#04740c"/>
    <path id="Tracé_16172" data-name="Tracé 16172" d="M407.2,330.806a15.941,15.941,0,0,1-13.095-5.568c-.312-.365-.6-.743-.88-1.133s-.569-.791-.825-1.2a14.611,14.611,0,0,1-2.036-5.527,16.2,16.2,0,0,1,2.107-11.273,15.594,15.594,0,0,1,9.184-7.08,13.5,13.5,0,0,1,11.451,2.107,17.2,17.2,0,0,1,6.827,11.075,19.673,19.673,0,0,1-.135,6.9q-.165.812-.4,1.587a15.59,15.59,0,0,1-.588,1.515,16.354,16.354,0,0,1-1.55,2.744,13.445,13.445,0,0,1-10.061,5.854" transform="translate(-180.385 -138.054)" fill="#04740c"/>
    <path id="Tracé_16173" data-name="Tracé 16173" d="M403.131,448.666a12.424,12.424,0,0,1-4.544-2.278,13.75,13.75,0,0,1-3.3-3.745,14.275,14.275,0,0,1-1.744-9.752,13.021,13.021,0,0,1,1.892-4.753,13.415,13.415,0,0,1,12.743-6.491,11.577,11.577,0,0,1,8.423,5.19,14.494,14.494,0,0,1,2.1,4.973,16.181,16.181,0,0,1-.032,5.781,14.251,14.251,0,0,1-5.8,9.266,12,12,0,0,1-4.637,2,11.54,11.54,0,0,1-5.095-.188" transform="translate(-181.886 -194.944)" fill="#04740c"/>
    <path id="Tracé_16174" data-name="Tracé 16174" d="M363.121,559.158a10.625,10.625,0,0,1-4.933-6.539,11.537,11.537,0,0,1,11.245-14.562,10.084,10.084,0,0,1,4.09.92,9.688,9.688,0,0,1,3.356,2.547,10.021,10.021,0,0,1,1.937,3.664,12.087,12.087,0,0,1-7.58,14.667,9.731,9.731,0,0,1-8.114-.7" transform="translate(-165.456 -248.807)" fill="#04740c"/>
    <path id="Tracé_16175" data-name="Tracé 16175" d="M299.245,657.2a8.223,8.223,0,0,1-2.863-5.787,9.059,9.059,0,0,1,2.057-6.352,9.708,9.708,0,0,1,2.666-2.242,8.792,8.792,0,0,1,3.1-1.121,8.106,8.106,0,0,1,6.237,1.526,7.92,7.92,0,0,1,3.053,5.7,8.935,8.935,0,0,1-2.088,6.57,9.5,9.5,0,0,1-5.973,3.442,7.809,7.809,0,0,1-6.189-1.731" transform="translate(-137.044 -296.682)" fill="#04740c"/>
    <path id="Tracé_16176" data-name="Tracé 16176" d="M221.148,743.778a6.573,6.573,0,0,1,9.5-9.033,6.573,6.573,0,0,1-9.5,9.033" transform="translate(-101.543 -338.936)" fill="#04740c"/>
    <path id="Tracé_16177" data-name="Tracé 16177" d="M196.578,757.719l-14.9,7.813a1.9,1.9,0,0,1-1.768-3.371l14.9-7.813a1.9,1.9,0,0,1,1.768,3.371" transform="translate(-82.723 -348.724)" fill="#191919"/>
    <path id="Tracé_16178" data-name="Tracé 16178" d="M203.941,667.287a1.9,1.9,0,0,1-.628.2l-86.269,11.719a1.9,1.9,0,0,1-.512-3.772L202.8,663.715a1.9,1.9,0,0,1,1.14,3.572" transform="translate(-53.125 -306.906)" fill="#191919"/>
    <path id="Tracé_16179" data-name="Tracé 16179" d="M215.411,561.905a1.9,1.9,0,0,1-.719.21L71.227,574.6a1.9,1.9,0,1,1-.331-3.793l143.464-12.488a1.9,1.9,0,0,1,1.049,3.583" transform="translate(-31.98 -258.176)" fill="#191919"/>
    <path id="Tracé_16180" data-name="Tracé 16180" d="M237.528,451.577a1.9,1.9,0,0,1-.739.211L74.762,464.126a1.9,1.9,0,0,1-.289-3.8L236.5,447.993a1.9,1.9,0,0,1,1.028,3.584" transform="translate(-33.625 -207.158)" fill="#191919"/>
    <path id="Tracé_16181" data-name="Tracé 16181" d="M250.373,338.882a1.9,1.9,0,0,1-.707.209L106.217,352.43a1.9,1.9,0,0,1-.353-3.79L249.313,335.3a1.9,1.9,0,0,1,1.06,3.581" transform="translate(-48.155 -155.046)" fill="#191919"/>
    <path id="Tracé_16182" data-name="Tracé 16182" d="M255.075,225.638a1.9,1.9,0,0,1-.5.179l-91.243,18.627a1.9,1.9,0,0,1-.762-3.73l91.244-18.626a1.9,1.9,0,0,1,1.265,3.55" transform="translate(-74.469 -102.68)" fill="#191919"/>
    <path id="Tracé_16183" data-name="Tracé 16183" d="M256.045,154.269l-16.389,8.6a1.9,1.9,0,0,1-1.768-3.371l16.389-8.6a1.9,1.9,0,0,1,1.768,3.371" transform="translate(-109.532 -69.677)" fill="#191919"/>
    <path id="Tracé_16184" data-name="Tracé 16184" d="M187.523,1522.682a21.024,21.024,0,0,1,6.845-5.269,23.235,23.235,0,0,1,8.124-2.214,23.808,23.808,0,0,1,16.214,4.588,23.468,23.468,0,0,1,9.026,14.074,23.11,23.11,0,0,1-2.629,16.479,19.161,19.161,0,0,1-14.2,9.18,24.832,24.832,0,0,1-18.027-4.863,24.558,24.558,0,0,1-9.828-15.719,20.469,20.469,0,0,1,.427-8.614,19.666,19.666,0,0,1,4.046-7.643" transform="translate(-84.522 -700.617)" fill="#04740c"/>
    <path id="Tracé_16185" data-name="Tracé 16185" d="M106.179,1443.706a18.936,18.936,0,0,1,6.937-3.456,21.154,21.154,0,0,1,7.525-.559,20.725,20.725,0,0,1,3.71.729q.907.266,1.787.616c.6.226,1.184.479,1.758.76a19.754,19.754,0,0,1,3.284,2.025,22.264,22.264,0,0,1,2.953,2.665,21.39,21.39,0,0,1,5.607,14.077,19.659,19.659,0,0,1-5.31,14.05,17.932,17.932,0,0,1-14.1,5.479,22.013,22.013,0,0,1-14.908-7.3,22.824,22.824,0,0,1-2.723-3.589,24.172,24.172,0,0,1-1.9-3.89q-.378-.992-.657-1.994t-.431-2.032a20.919,20.919,0,0,1-.271-4.027,18.152,18.152,0,0,1,1.854-7.523,17.575,17.575,0,0,1,4.883-6.03" transform="translate(-45.979 -665.688)" fill="#04740c"/>
    <path id="Tracé_16186" data-name="Tracé 16186" d="M44.34,1348.667a16.878,16.878,0,0,1,6.707-1.4,18.628,18.628,0,0,1,6.586,1.163,18.184,18.184,0,0,1,2.985,1.427,19.663,19.663,0,0,1,2.745,1.916,18.683,18.683,0,0,1,6.416,11.788,17.9,17.9,0,0,1,.139,3.349,22.1,22.1,0,0,1-.446,3.314,17.56,17.56,0,0,1-7.446,11.013,15.763,15.763,0,0,1-13.271,1.838,16.094,16.094,0,0,1-3.3-1.375,20.75,20.75,0,0,1-10.467-15.652,17.532,17.532,0,0,1,.578-7.266,16.184,16.184,0,0,1,3.23-6.047,15.485,15.485,0,0,1,5.548-4.072" transform="translate(-16.11 -623.003)" fill="#04740c"/>
    <path id="Tracé_16187" data-name="Tracé 16187" d="M12.974,1239.516a15.66,15.66,0,0,1,11.04,3.557,15.832,15.832,0,0,1,2.055,2.011c.311.364.6.743.879,1.133s.57.791.826,1.2a14.614,14.614,0,0,1,2.036,5.527,16.2,16.2,0,0,1-2.107,11.273,15.593,15.593,0,0,1-9.184,7.08A13.5,13.5,0,0,1,7.067,1269.2,17.2,17.2,0,0,1,.24,1258.12a19.675,19.675,0,0,1,.135-6.9q.165-.812.4-1.587a15.594,15.594,0,0,1,.588-1.515,16.354,16.354,0,0,1,1.55-2.744,13.444,13.444,0,0,1,10.061-5.854" transform="translate(0 -573.154)" fill="#04740c"/>
    <path id="Tracé_16188" data-name="Tracé 16188" d="M20.9,1125.806a12.422,12.422,0,0,1,4.544,2.278,13.734,13.734,0,0,1,3.3,3.745,14.271,14.271,0,0,1,1.744,9.752,13.024,13.024,0,0,1-1.893,4.753,13.413,13.413,0,0,1-12.742,6.491,11.575,11.575,0,0,1-8.424-5.19,14.5,14.5,0,0,1-2.1-4.974,16.181,16.181,0,0,1,.032-5.781,14.253,14.253,0,0,1,5.8-9.266,12.011,12.011,0,0,1,4.637-2,11.545,11.545,0,0,1,5.095.188" transform="translate(-2.353 -520.414)" fill="#04740c"/>
    <path id="Tracé_16189" data-name="Tracé 16189" d="M64.484,1019.708a10.625,10.625,0,0,1,4.933,6.539,11.537,11.537,0,0,1-11.245,14.562,10.085,10.085,0,0,1-4.09-.92,9.691,9.691,0,0,1-3.356-2.547,10.028,10.028,0,0,1-1.937-3.664,12.087,12.087,0,0,1,7.58-14.667,9.731,9.731,0,0,1,8.114.7" transform="translate(-22.356 -470.945)" fill="#04740c"/>
    <path id="Tracé_16190" data-name="Tracé 16190" d="M132.05,925.927a8.221,8.221,0,0,1,2.863,5.787,9.058,9.058,0,0,1-2.057,6.352,9.706,9.706,0,0,1-2.666,2.242,8.8,8.8,0,0,1-3.1,1.122,8.106,8.106,0,0,1-6.236-1.526,7.921,7.921,0,0,1-3.053-5.7,8.936,8.936,0,0,1,2.088-6.57,9.5,9.5,0,0,1,5.973-3.442,7.809,7.809,0,0,1,6.189,1.731" transform="translate(-54.459 -427.328)" fill="#04740c"/>
    <path id="Tracé_16191" data-name="Tracé 16191" d="M214.017,843.457a6.573,6.573,0,0,1-9.5,9.033,6.573,6.573,0,0,1,9.5-9.033" transform="translate(-93.828 -389.185)" fill="#04740c"/>
    <path id="Tracé_16192" data-name="Tracé 16192" d="M297.857,792.571a18.931,18.931,0,0,1-6.937,3.456,21.149,21.149,0,0,1-7.525.559,20.784,20.784,0,0,1-3.711-.728q-.906-.267-1.787-.617t-1.758-.761a19.745,19.745,0,0,1-3.284-2.025,22.242,22.242,0,0,1-2.953-2.665,21.387,21.387,0,0,1-5.607-14.077,19.66,19.66,0,0,1,5.31-14.05,17.933,17.933,0,0,1,14.1-5.479,22.013,22.013,0,0,1,14.908,7.3,22.825,22.825,0,0,1,2.723,3.589,24.165,24.165,0,0,1,1.9,3.889q.378.992.657,1.994t.431,2.032a20.917,20.917,0,0,1,.272,4.027,18.154,18.154,0,0,1-1.854,7.523,17.573,17.573,0,0,1-4.883,6.03" transform="translate(-122.213 -349.661)" fill="#04740c"/>
    <path id="Tracé_16193" data-name="Tracé 16193" d="M364.177,891.08a16.866,16.866,0,0,1-6.707,1.4,18.611,18.611,0,0,1-6.586-1.163,18.113,18.113,0,0,1-2.985-1.428,19.585,19.585,0,0,1-2.745-1.915,18.683,18.683,0,0,1-6.415-11.788,17.9,17.9,0,0,1-.139-3.35,22.091,22.091,0,0,1,.446-3.314,17.562,17.562,0,0,1,7.445-11.013,15.767,15.767,0,0,1,13.271-1.838,16.139,16.139,0,0,1,3.3,1.376A20.748,20.748,0,0,1,373.533,873.7a18.573,18.573,0,0,1,.089,3.715,18.765,18.765,0,0,1-.667,3.552,16.191,16.191,0,0,1-3.23,6.046,15.482,15.482,0,0,1-5.548,4.072" transform="translate(-156.563 -395.817)" fill="#04740c"/>
    <path id="Tracé_16194" data-name="Tracé 16194" d="M399.857,1003.846a15.94,15.94,0,0,1-13.1-5.568c-.312-.364-.6-.743-.88-1.133s-.569-.791-.825-1.2a14.621,14.621,0,0,1-2.036-5.528,16.2,16.2,0,0,1,2.107-11.273,15.59,15.59,0,0,1,9.184-7.079,13.493,13.493,0,0,1,11.452,2.107,17.2,17.2,0,0,1,6.827,11.075,19.664,19.664,0,0,1-.135,6.9c-.111.541-.244,1.071-.4,1.587a15.72,15.72,0,0,1-.588,1.515,16.35,16.35,0,0,1-1.55,2.744,13.444,13.444,0,0,1-10.061,5.854" transform="translate(-176.988 -449.28)" fill="#04740c"/>
    <path id="Tracé_16195" data-name="Tracé 16195" d="M395.784,1121.707a12.423,12.423,0,0,1-4.544-2.278,13.749,13.749,0,0,1-3.3-3.745,14.275,14.275,0,0,1-1.744-9.752,13.02,13.02,0,0,1,1.892-4.753,13.414,13.414,0,0,1,12.743-6.49,11.574,11.574,0,0,1,8.423,5.19,14.492,14.492,0,0,1,2.1,4.973,16.181,16.181,0,0,1-.032,5.781,14.25,14.25,0,0,1-5.8,9.266,12,12,0,0,1-4.637,2,11.54,11.54,0,0,1-5.095-.188" transform="translate(-178.488 -506.17)" fill="#04740c"/>
    <path id="Tracé_16196" data-name="Tracé 16196" d="M355.774,1232.2a10.625,10.625,0,0,1-4.933-6.54,11.537,11.537,0,0,1,11.245-14.562,10.087,10.087,0,0,1,4.09.92,9.694,9.694,0,0,1,3.356,2.547,10.019,10.019,0,0,1,1.937,3.664,12.088,12.088,0,0,1-7.58,14.667,9.73,9.73,0,0,1-8.114-.7" transform="translate(-162.059 -560.033)" fill="#04740c"/>
    <path id="Tracé_16197" data-name="Tracé 16197" d="M291.9,1330.237a8.223,8.223,0,0,1-2.863-5.787,9.06,9.06,0,0,1,2.057-6.352,9.7,9.7,0,0,1,2.666-2.241,8.781,8.781,0,0,1,3.1-1.121,8.1,8.1,0,0,1,6.236,1.526,7.921,7.921,0,0,1,3.053,5.7,8.938,8.938,0,0,1-2.088,6.57,9.5,9.5,0,0,1-5.973,3.441,7.81,7.81,0,0,1-6.189-1.731" transform="translate(-133.646 -607.908)" fill="#04740c"/>
    <path id="Tracé_16198" data-name="Tracé 16198" d="M213.8,1416.818a6.573,6.573,0,0,1,9.5-9.033,6.573,6.573,0,0,1-9.5,9.033" transform="translate(-98.146 -650.162)" fill="#04740c"/>
    <path id="Tracé_16199" data-name="Tracé 16199" d="M189.23,1430.758l-14.9,7.813a1.9,1.9,0,1,1-1.768-3.37l14.9-7.814a1.9,1.9,0,0,1,1.768,3.371" transform="translate(-79.325 -659.949)" fill="#191919"/>
    <path id="Tracé_16200" data-name="Tracé 16200" d="M196.593,1340.326a1.9,1.9,0,0,1-.628.2l-86.27,11.719a1.9,1.9,0,0,1-.512-3.772l86.27-11.719a1.9,1.9,0,0,1,1.14,3.571" transform="translate(-49.727 -618.132)" fill="#191919"/>
    <path id="Tracé_16201" data-name="Tracé 16201" d="M208.063,1234.945a1.9,1.9,0,0,1-.719.21L63.879,1247.643a1.9,1.9,0,1,1-.33-3.793l143.464-12.488a1.9,1.9,0,0,1,1.049,3.582" transform="translate(-28.582 -569.402)" fill="#191919"/>
    <path id="Tracé_16202" data-name="Tracé 16202" d="M230.181,1124.618a1.9,1.9,0,0,1-.739.211L67.415,1137.167a1.9,1.9,0,0,1-.289-3.8l162.027-12.337a1.9,1.9,0,0,1,1.028,3.584" transform="translate(-30.227 -518.385)" fill="#191919"/>
    <path id="Tracé_16203" data-name="Tracé 16203" d="M243.026,1011.922a1.9,1.9,0,0,1-.707.209L98.87,1025.47a1.9,1.9,0,0,1-.353-3.79l143.448-13.339a1.9,1.9,0,0,1,1.06,3.581" transform="translate(-44.758 -466.272)" fill="#191919"/>
    <path id="Tracé_16204" data-name="Tracé 16204" d="M247.728,898.678a1.9,1.9,0,0,1-.5.179l-91.243,18.627a1.9,1.9,0,0,1-.762-3.73l91.244-18.626a1.9,1.9,0,0,1,1.265,3.55" transform="translate(-71.072 -413.906)" fill="#191919"/>
    <path id="Tracé_16205" data-name="Tracé 16205" d="M248.7,827.31l-16.389,8.6a1.9,1.9,0,0,1-1.768-3.371l16.389-8.6a1.9,1.9,0,1,1,1.768,3.371" transform="translate(-106.134 -380.904)" fill="#191919"/>
  </g>
</svg>
