<svg xmlns="http://www.w3.org/2000/svg" width="33.536" height="35" viewBox="0 0 33.536 35">
  <g id="CONSEIL" transform="translate(-18.378 -8)">
    <path id="Tracé_16058" data-name="Tracé 16058" d="M51.911,40.237a6.693,6.693,0,0,0-4.451-5.616,3.67,3.67,0,0,0-.428-6.124,12.815,12.815,0,0,0,.847-2.295l2.106-.81a.564.564,0,0,0,.362-.527V20.979a.565.565,0,0,0-.362-.527l-2.105-.81a12.789,12.789,0,0,0-1.329-3.206l.916-2.063a.564.564,0,0,0-.117-.628L44.6,11a.565.565,0,0,0-.628-.117l-2.063.916A12.8,12.8,0,0,0,38.7,10.467l-.811-2.106A.564.564,0,0,0,37.367,8H33.481a.565.565,0,0,0-.527.362l-.811,2.106A12.8,12.8,0,0,0,28.939,11.8l-2.064-.916a.564.564,0,0,0-.628.117L23.5,13.744a.564.564,0,0,0-.117.628l.916,2.063a12.788,12.788,0,0,0-1.329,3.205l-2.105.81a.565.565,0,0,0-.362.527v3.886a.565.565,0,0,0,.362.527l2.105.81a12.826,12.826,0,0,0,.744,2.08,3.671,3.671,0,0,0-.881,6.339,6.693,6.693,0,0,0-4.451,5.616.564.564,0,0,0,.561.625h9.869a6.747,6.747,0,0,0-.341,1.514.565.565,0,0,0,.561.625H41.26a.565.565,0,0,0,.561-.625,6.743,6.743,0,0,0-.341-1.514h9.869a.565.565,0,0,0,.561-.624ZM47.78,31.7a2.545,2.545,0,1,1-2.545-2.545A2.548,2.548,0,0,1,47.78,31.7ZM39.3,37.818a6.693,6.693,0,0,0-1.93-1.058,3.7,3.7,0,0,0,1.082-1.32,12.792,12.792,0,0,0,3.458-1.392l.879.391q.108.1.222.184a6.729,6.729,0,0,0-3.712,3.2Zm-8.308,0A6.725,6.725,0,0,0,27.479,34.7l1.46-.648a12.816,12.816,0,0,0,2.823,1.22,3.694,3.694,0,0,0,1.16,1.493A6.7,6.7,0,0,0,30.992,37.818Zm4.154-1.435a2.545,2.545,0,1,1,2.545-2.545A2.548,2.548,0,0,1,35.146,36.383ZM32.07,20.89a3.354,3.354,0,1,1,3.355,3.354h0A3.358,3.358,0,0,1,32.07,20.89Zm2.873,4.5q.239-.016.479-.016h0q.241,0,.479.016l-.481.372Zm1.292,1.172,1.17-.906q.124.036.247.076l-.846,1.508Zm-2.792-.906,1.17.906-.571.677L33.2,25.731q.123-.04.247-.076Zm1.337,4.515.561-2.719.084-.1.084.1.561,2.719-.084.093a3.668,3.668,0,0,0-.838-.1c-.12,0-.238.006-.355.017Zm2.583.742q-.132-.1-.273-.188l.008-.009a.565.565,0,0,0,.134-.493l-.3-1.434h.017a.565.565,0,0,0,.439-.286L38.7,26.17a7.217,7.217,0,0,1,2.694,2.392A8.178,8.178,0,0,1,37.363,30.911Zm4.774-3.258A8.373,8.373,0,0,0,37.9,24.625a4.483,4.483,0,1,0-4.95,0,8.373,8.373,0,0,0-4.243,3.035,8.225,8.225,0,1,1,13.43-.007ZM32.147,26.17,33.456,28.5a.565.565,0,0,0,.439.286h.017l-.3,1.434a.564.564,0,0,0,.012.273,3.675,3.675,0,0,0-.546.307,8.183,8.183,0,0,1-3.632-2.234A7.218,7.218,0,0,1,32.147,26.17Zm-8.153-.52a.565.565,0,0,0-.346-.4l-2.017-.776V21.366l2.017-.777a.565.565,0,0,0,.346-.4,11.669,11.669,0,0,1,1.419-3.423.565.565,0,0,0,.035-.525l-.878-1.977,2.2-2.2,1.977.878a.564.564,0,0,0,.525-.035A11.669,11.669,0,0,1,32.7,11.493a.564.564,0,0,0,.4-.346l.777-2.018h3.111l.777,2.017a.564.564,0,0,0,.4.346,11.673,11.673,0,0,1,3.423,1.419.565.565,0,0,0,.525.035l1.977-.878,2.2,2.2L45.4,16.245a.564.564,0,0,0,.035.525,11.669,11.669,0,0,1,1.419,3.423.564.564,0,0,0,.346.4l2.017.776v3.111l-2.017.777a.565.565,0,0,0-.346.4,11.68,11.68,0,0,1-.883,2.45,3.672,3.672,0,0,0-4.219,4.762.563.563,0,0,0-.176.07A11.676,11.676,0,0,1,38.8,34.176c.01-.111.016-.223.016-.337a3.651,3.651,0,0,0-.592-2,9.347,9.347,0,1,0-6.058-.153,3.652,3.652,0,0,0-.7,2.15c0,.05,0,.1,0,.149a11.7,11.7,0,0,1-2.2-1.056.564.564,0,0,0-.525-.035l-.261.116a3.672,3.672,0,0,0-3.431-4.986c-.071,0-.142,0-.213.007a11.711,11.711,0,0,1-.849-2.383Zm1.062,3.506A2.545,2.545,0,1,1,22.512,31.7,2.548,2.548,0,0,1,25.057,29.155Zm-5.45,10.577a5.586,5.586,0,0,1,10.525-1.106,6.681,6.681,0,0,0-.8,1.106ZM29.7,41.871a5.587,5.587,0,0,1,10.9,0Zm11.267-2.139a6.685,6.685,0,0,0-.8-1.106,5.586,5.586,0,0,1,10.525,1.106Z" transform="translate(0)" fill="#57a85d"/>
  </g>
</svg>
