<svg xmlns="http://www.w3.org/2000/svg" width="70" height="70.204" viewBox="0 0 70 70.204">
  <g id="mentoring" transform="translate(-0.75)">
    <path id="Tracé_16296" data-name="Tracé 16296" d="M64.359,61.867v7.311A1.029,1.029,0,0,1,63.333,70.2H49.185a1.03,1.03,0,0,1-1.03-1.026v-.54A2.641,2.641,0,0,0,45.52,66H40.976A1.179,1.179,0,0,1,39.8,64.825V59.978a.925.925,0,0,0-.921-.921h-.835A1.26,1.26,0,0,1,37,57.079l2.8-4.066V47.829a14.917,14.917,0,1,1,26.146,9.818,6.187,6.187,0,0,0-1.586,4.221Zm-58.338,0v7.311A1.033,1.033,0,0,0,7.051,70.2H21.2a1.03,1.03,0,0,0,1.03-1.026v-.54A2.641,2.641,0,0,1,24.864,66h4.544a1.179,1.179,0,0,0,1.178-1.178V59.978a.925.925,0,0,1,.921-.921h.835a1.26,1.26,0,0,0,1.041-1.977l-2.8-4.066V47.829a14.917,14.917,0,1,0-26.15,9.818A6.167,6.167,0,0,1,6.021,61.867ZM55.547,7.712A7.491,7.491,0,0,0,50.141,20.39a5.646,5.646,0,0,1,1.485,2.716c.043,0,.085-.008.132-.008h2.674V18.086l-1.792-1.792a1.115,1.115,0,0,1,1.574-1.578l1.333,1.333,1.329-1.333a1.115,1.115,0,0,1,1.574,1.578l-1.792,1.792V23.1h2.674c.047,0,.089,0,.136.008a5.6,5.6,0,0,1,1.481-2.716,7.493,7.493,0,0,0-5.4-12.681Zm2.784,20.131a1,1,0,0,0,1-1V25.33H51.763v1.512a1,1,0,0,0,1,1h.089a2.332,2.332,0,0,0,2.278,2.834h.879a2.335,2.335,0,0,0,2.328-2.328,2.364,2.364,0,0,0-.055-.506ZM62.524,6.65A1.113,1.113,0,1,0,64.1,8.225l2.2-2.2a1.113,1.113,0,1,0-1.574-1.574ZM54.433,4.222a1.114,1.114,0,1,0,2.228,0V1.116a1.114,1.114,0,1,0-2.228,0Zm12.1,9.869a1.114,1.114,0,1,0,0,2.228h3.106a1.114,1.114,0,1,0,0-2.228Zm-2.422,8.1a1.115,1.115,0,0,0-1.574,1.578l2.188,2.188a1.113,1.113,0,1,0,1.574-1.574ZM46.992,8.224A1.115,1.115,0,0,0,48.571,6.65l-2.2-2.2A1.113,1.113,0,1,0,44.8,6.028Zm-2.428,8.093a1.114,1.114,0,1,0,0-2.228H41.458a1.114,1.114,0,1,0,0,2.228Zm4,7.447a1.116,1.116,0,1,0-1.578-1.578L44.8,24.379a1.113,1.113,0,1,0,1.574,1.574Zm-27.11-.392A12.466,12.466,0,0,1,25.62,18.33c2.441-1.636,5.83-2.367,10.623-1.765a1.114,1.114,0,0,0,.267-2.212c-5.368-.676-9.25.2-12.127,2.134A14.4,14.4,0,0,0,19.6,22.112l-.856-2.519a1.112,1.112,0,0,0-2.106.712l1.788,5.267a1.109,1.109,0,0,0,1.411.7L25.1,24.483a1.112,1.112,0,0,0-.712-2.106Z" transform="translate(0)" fill="#04042c" fill-rule="evenodd"/>
  </g>
</svg>
