<svg xmlns="http://www.w3.org/2000/svg" width="70" height="70.26" viewBox="0 0 70 70.26">
  <g id="transformation" transform="translate(-8.141 -7.223)">
    <path id="Tracé_16298" data-name="Tracé 16298" d="M25.052,57.116a17.722,17.722,0,0,1,35.024,0,.709.709,0,0,1-.7.811c-4.733,0-28.889,0-33.623,0a.706.706,0,0,1-.7-.809ZM42.562,40.7a8.96,8.96,0,1,1,8.96-8.96A8.975,8.975,0,0,1,42.562,40.7ZM17.487,7.223a9.346,9.346,0,1,1-9.346,9.346,9.351,9.351,0,0,1,9.346-9.346Zm-.534,51.722,7.111,4.105a1.135,1.135,0,0,1,.567.982v8.211a1.134,1.134,0,0,1-.567.982l-7.111,4.105a1.134,1.134,0,0,1-1.134,0L8.708,73.226a1.134,1.134,0,0,1-.567-.982V64.033a1.135,1.135,0,0,1,.567-.982l7.111-4.105a1.134,1.134,0,0,1,1.134,0ZM32.92,14.334H56.5a1.134,1.134,0,1,1,0,2.268H32.92a1.134,1.134,0,0,1-1.889,1.257L29.846,16.1a1.134,1.134,0,0,1,0-1.269l1.185-1.757a1.134,1.134,0,0,1,1.889,1.257ZM69.873,33.419V54.838a1.134,1.134,0,1,1-2.268,0V33.419a1.134,1.134,0,0,1-1.257-1.889L68.1,30.346a1.135,1.135,0,0,1,1.269,0l1.757,1.185a1.134,1.134,0,0,1-1.257,1.889ZM52.8,68.1a1.134,1.134,0,0,1,1.889-1.257L55.871,68.6a1.135,1.135,0,0,1,0,1.269l-1.185,1.757A1.134,1.134,0,0,1,52.8,70.372H28.628a1.134,1.134,0,1,1,0-2.268ZM15.252,52.662V31.286a1.134,1.134,0,1,1,2.268,0V52.662a1.134,1.134,0,0,1,1.257,1.889L17.02,55.736a1.134,1.134,0,0,1-1.269,0l-1.757-1.185a1.134,1.134,0,0,1,1.257-1.889ZM76.983,10.149v12.84a1.825,1.825,0,0,1-1.825,1.825H62.318a1.825,1.825,0,0,1-1.825-1.825V10.149a1.825,1.825,0,0,1,1.825-1.825h12.84A1.825,1.825,0,0,1,76.983,10.149ZM67.373,60.2a1.576,1.576,0,0,1,2.73,0L77.93,73.755a1.576,1.576,0,0,1-1.365,2.364H60.912a1.576,1.576,0,0,1-1.365-2.364Z" fill="#fff" fill-rule="evenodd"/>
  </g>
</svg>
