<svg xmlns="http://www.w3.org/2000/svg" width="70" height="67.749" viewBox="0 0 70 67.749">
  <g id="coaching" transform="translate(-10.876 -18.759)">
    <path id="Tracé_16297" data-name="Tracé 16297" d="M40.038,37.035a1,1,0,0,1,.729-.6l1.52-.3v-.55q-.637-.922-1.2-1.894l-.324-.064a1,1,0,0,1-.729-.6l-1.021-2.462a1,1,0,0,1,.093-.939l.864-1.288-1.56-1.561-1.288.864a1,1,0,0,1-.94.093l-2.462-1.021a1,1,0,0,1-.6-.73l-.3-1.521H30.618l-.3,1.521a1,1,0,0,1-.6.73L27.259,27.74a1,1,0,0,1-.941-.093l-1.286-.864-1.561,1.561.863,1.288a1,1,0,0,1,.092.939l-1.021,2.462a1,1,0,0,1-.729.6l-1.52.3v2.207l1.52.3a1,1,0,0,1,.729.6L24.427,39.5a1,1,0,0,1-.092.94l-.863,1.286,1.561,1.561,1.286-.862a1,1,0,0,1,.941-.093l2.462,1.021a1,1,0,0,1,.6.73l.3,1.519h2.207l.3-1.519a1,1,0,0,1,.6-.73l2.462-1.021a1,1,0,0,1,.94.093l1.288.862,1.56-1.561-.864-1.286a1,1,0,0,1-.093-.94Zm-8.315,3.443a5.444,5.444,0,1,1,5.444-5.444A5.455,5.455,0,0,1,31.723,40.478Zm20.811,9.948H10.911V18.759H52.534V33.677c-1.8-.91-3.26-2.609-4.7-5.181a4.264,4.264,0,0,0-6.349-1.47l-2.238-2.238a1,1,0,0,0-1.264-.123l-1.525,1.022-1.474-.611-.355-1.8a1,1,0,0,0-.98-.807H29.8a1,1,0,0,0-.981.807l-.356,1.8-1.472.611-1.524-1.022a1,1,0,0,0-1.264.123l-2.723,2.723a1,1,0,0,0-.125,1.264L22.376,30.3l-.611,1.474-1.8.355a1,1,0,0,0-.807.979V36.96a1,1,0,0,0,.807.981l1.8.356.611,1.472-1.024,1.525a1,1,0,0,0,.125,1.264L24.2,45.28a1,1,0,0,0,1.264.124l1.524-1.024,1.472.611.356,1.8a1,1,0,0,0,.981.807h3.851a1,1,0,0,0,.98-.805l.355-1.8,1.474-.611L37.981,45.4a1,1,0,0,0,1.264-.124l2.723-2.723a1,1,0,0,0,.123-1.264l-1.023-1.525.611-1.472,1.8-.356a1,1,0,0,0,.469-.232,16.882,16.882,0,0,0,8.584,5.27v7.448Zm-21.811,4.1H10.911v-2.1H52.534v2.1H32.722v4.846h3.707a1,1,0,0,1,.909.584l1.322,2.29a1,1,0,1,1-1.726.992l-1.078-1.867H27.588L26.51,63.239a1,1,0,1,1-1.726-.992l1.369-2.371a1,1,0,0,1,.863-.5h3.707ZM29.9,86.508H10.876a9.553,9.553,0,0,1,19.027,0ZM24.939,73.242a4.55,4.55,0,1,1-4.55-4.55A4.559,4.559,0,0,1,24.939,73.242Zm27.63,13.266H33.542a9.553,9.553,0,0,1,19.027,0ZM43.055,68.692a4.55,4.55,0,1,1-4.55,4.55,4.559,4.559,0,0,1,4.55-4.55ZM80.466,58.626a3.635,3.635,0,0,1-3.795,3.456h-.351V43.851a1,1,0,1,0-2,0V56.907H58.489V43.25a1.605,1.605,0,0,0-1.511-1.6c-8.151-.488-12.074-4.9-14.792-10.111a2.212,2.212,0,1,1,3.9-2.061c3.088,5.5,6.8,8.365,14.669,6.339q1.043-.27,2.084-.543a1.659,1.659,0,0,1,1.372.223,5.41,5.41,0,0,0,1.309.633L64.446,46.888,66.9,50.4l2.451-3.508-1.076-10.76a5.452,5.452,0,0,0,1.44-.721,1.66,1.66,0,0,1,1.427-.244A47.937,47.937,0,0,1,78.6,37.592c1.443.846,1.957,1.71,2.134,4.008A156.812,156.812,0,0,1,80.466,58.626Zm-6.216.28,1.32,27.558h-6.8L67.19,70.031a.788.788,0,0,0-1.569,0L64.044,86.463h-6.8l1.342-27.557H74.25ZM66.9,19.41c8.581,0,6.788,13.466,0,13.907C60.109,32.877,58.316,19.41,66.9,19.41Z" fill="#04042c" fill-rule="evenodd"/>
  </g>
</svg>
