<svg xmlns="http://www.w3.org/2000/svg" width="70" height="60.749" viewBox="0 0 70 60.749">
  <g id="accompagner" transform="translate(0 -30.318)">
    <circle id="Ellipse_138" data-name="Ellipse 138" cx="4.954" cy="4.954" r="4.954" transform="translate(17.626 30.318)" fill="#04042c"/>
    <path id="Tracé_16299" data-name="Tracé 16299" d="M69.569,120.193l-5.638-7.75a2.254,2.254,0,0,0-.459-.468l-8.292-6.3a2.247,2.247,0,0,0-2.131-.322c-.61.06-.372.014-6.465,2.342a3.341,3.341,0,0,0-1.665,1.385l3.538-.76-7.647,3.855c-7.069-4.027-7.148-4.232-8.1-4.14-.451-.329-.609-.322-2.877-.905l-5.43-1.4L21.59,97.642l2.142,3.2.372-.974a3.36,3.36,0,0,0-1.939-4.336c-6.084-2.325-5.856-2.283-6.468-2.342a2.244,2.244,0,0,0-1.851.142l-9.19,5.059a2.252,2.252,0,0,0-.968,1.049L.2,107.2a2.252,2.252,0,1,0,4.106,1.85l3.181-7.07,2.808-1.546-4.1,11.042S5.9,114.24,4.447,134.089A2.624,2.624,0,0,0,6.87,136.9H2.546A1.043,1.043,0,0,0,1.5,137.943v5.273a1.043,1.043,0,0,0,1.043,1.043h21.64a1.043,1.043,0,0,0,1.043-1.043v-5.273a1.043,1.043,0,0,0-1.043-1.043h-3.9a2.621,2.621,0,0,0,2.51-2.618V121.923a2.625,2.625,0,0,0-.41-1.409l-3.848-6.048,1.319-3.457a4.108,4.108,0,0,1-1.454-2.429L17.44,99.42l3.108,8.936a2.252,2.252,0,0,0,1.566,1.441c9.567,2.46,8.95,2.353,9.489,2.3.174.126-.534-.286,8.027,4.591a2.261,2.261,0,0,0,2.127.054l8.445-4.257L46.124,115.9l3.254,8.528-3.4,2.7a2.625,2.625,0,0,0-.908,1.4l-3.19,12.439a2.623,2.623,0,1,0,5.081,1.3l2.971-11.586,5.407-4.3.952-.364-.99,5.636a2.626,2.626,0,0,0,.382,1.881l6.16,9.509a2.623,2.623,0,1,0,4.4-2.855l-5.6-8.644L62,123.848l-2.889-9.526,1.37,1.041,5.443,7.482a2.252,2.252,0,1,0,3.641-2.652ZM20.057,136.9H7.187a2.622,2.622,0,0,0,2.492-2.426L11.228,113.4l.537.205,5.782,9.086v11.594a2.622,2.622,0,0,0,2.51,2.619Z" transform="translate(0 -53.193)" fill="#04042c"/>
    <circle id="Ellipse_139" data-name="Ellipse 139" cx="4.954" cy="4.954" r="4.954" transform="translate(41.215 42.482)" fill="#04042c"/>
  </g>
</svg>
