<svg xmlns="http://www.w3.org/2000/svg" xmlns:xlink="http://www.w3.org/1999/xlink" width="814.561" height="802.562" viewBox="0 0 814.561 802.562">
  <defs>
    <filter id="Tracé_16239" x="0" y="317" width="201.643" height="201.643" filterUnits="userSpaceOnUse">
      <feOffset dx="10" dy="17" input="SourceAlpha"/>
      <feGaussianBlur stdDeviation="12.5" result="blur"/>
      <feFlood flood-opacity="0.149"/>
      <feComposite operator="in" in2="blur"/>
      <feComposite in="SourceGraphic"/>
    </filter>
    <filter id="Tracé_16236" x="613" y="289" width="201.561" height="201.643" filterUnits="userSpaceOnUse">
      <feOffset dx="-17" dy="-11" input="SourceAlpha"/>
      <feGaussianBlur stdDeviation="12.5" result="blur-2"/>
      <feFlood flood-opacity="0.212"/>
      <feComposite operator="in" in2="blur-2"/>
      <feComposite in="SourceGraphic"/>
    </filter>
    <filter id="Tracé_16245" x="299" y="0" width="201.643" height="201.562" filterUnits="userSpaceOnUse">
      <feOffset dx="-11" dy="20" input="SourceAlpha"/>
      <feGaussianBlur stdDeviation="12.5" result="blur-3"/>
      <feFlood flood-opacity="0.149"/>
      <feComposite operator="in" in2="blur-3"/>
      <feComposite in="SourceGraphic"/>
    </filter>
    <filter id="Tracé_16247" x="323" y="601" width="201.643" height="201.562" filterUnits="userSpaceOnUse">
      <feOffset dx="13" dy="-19" input="SourceAlpha"/>
      <feGaussianBlur stdDeviation="12.5" result="blur-4"/>
      <feFlood flood-opacity="0.149"/>
      <feComposite operator="in" in2="blur-4"/>
      <feComposite in="SourceGraphic"/>
    </filter>
  </defs>
  <g id="Groupe_3269" data-name="Groupe 3269" transform="translate(-294.5 -9628.5)">
    <g id="Groupe_3260" data-name="Groupe 3260" transform="translate(-9 32.999)">
      <g id="Groupe_3258" data-name="Groupe 3258" transform="translate(331 9932.734)">
        <path id="Tracé_16231" data-name="Tracé 16231" d="M308.3,655.446a63.242,63.242,0,0,0,0-89.537L108.174,365.7a63.37,63.37,0,0,0-89.618,89.618l200.21,200.129a63.242,63.242,0,0,0,89.537,0" transform="translate(-0.003 -347.186)" fill="#dadada" fill-rule="evenodd"/>
        <g transform="matrix(1, 0, 0, 1, -27.5, -337.23)" filter="url(#Tracé_16239)">
          <path id="Tracé_16239-2" data-name="Tracé 16239" d="M0,410.472a63.322,63.322,0,1,0,63.321-63.241A63.4,63.4,0,0,0,0,410.472" transform="translate(27.5 -9.73)" fill="#dcdcdc" fill-rule="evenodd"/>
        </g>
        <g id="capital_humain" data-name="capital humain" transform="translate(24 24.267)">
          <path id="Tracé_16257" data-name="Tracé 16257" d="M21.936,65.317l.765,1.352,0,0a2.523,2.523,0,0,1-.951,3.423L18.96,71.676l0,0a2.523,2.523,0,0,1-3.423-.952l-8.208-14.5A2.518,2.518,0,0,1,8.273,52.8l2.794-1.582h0a2.525,2.525,0,0,1,3.424.948v0l.616,1.088,7.257-4.2c2.213-1.28,4.474-2.111,6.9-1.322,2.348.761,6.181,2.4,10.093,3.11a1.041,1.041,0,0,1,.137.034,3.917,3.917,0,0,1,2.677,4.715,4.465,4.465,0,0,1-.274.752,5.393,5.393,0,0,0,1.113-.494l9.952-5.8c3.625-2.112,6.043-1.874,7.412-.956a4.188,4.188,0,0,1-.036,6.765L42.285,66.979a7.639,7.639,0,0,1-6.183.879h0l-12.68-3.4ZM20.875,67.7,12.67,53.2a.421.421,0,0,0-.57-.16L9.306,54.622h0a.416.416,0,0,0-.155.567h0l8.208,14.5h0a.42.42,0,0,0,.57.156l2.788-1.58h0A.42.42,0,0,0,20.875,67.7Zm.028-4.207,1.846-1.066a1.048,1.048,0,0,1,.8-.1l13.1,3.51a5.608,5.608,0,0,0,4.541-.638h0L59.244,54.075a2.07,2.07,0,0,0-.331-3.4c-1.027-.427-2.6-.147-4.89,1.186l-9.952,5.8a7.468,7.468,0,0,1-5.131.9h0l-1.234-.2s-4.376-1.148-6.689-1.77a1.048,1.048,0,1,1,.544-2.025c2.256.606,4.289,1.271,6.478,1.724a1.767,1.767,0,0,0,2.114-1.246h0a1.824,1.824,0,0,0-1.238-2.156,74.945,74.945,0,0,1-10.291-3.165h0c-1.843-.6-3.529.172-5.207,1.142l-7.274,4.212Zm-9.229-8.8a1.158,1.158,0,1,1-.98,1.312A1.158,1.158,0,0,1,11.674,54.7Zm6.3-34.113A10.971,10.971,0,1,1,7,31.554,10.97,10.97,0,0,1,17.971,20.584Zm7.4,15.874a8.874,8.874,0,1,0-14.8,0A8.008,8.008,0,0,1,14.7,32.165a4.553,4.553,0,1,1,6.546,0A8.007,8.007,0,0,1,25.368,36.457ZM12.2,38.3a8.876,8.876,0,0,0,11.535,0,5.879,5.879,0,0,0-11.535,0Zm5.767-6.835a2.456,2.456,0,1,0-2.456-2.456A2.462,2.462,0,0,0,17.971,31.464ZM42.264,8.821a9.475,9.475,0,0,1,1.752.726l1.124-.5a1.048,1.048,0,0,1,1.167.217l1.9,1.9a1.048,1.048,0,0,1,.217,1.166l-.5,1.125a9.455,9.455,0,0,1,.727,1.756l1.146.441a1.048,1.048,0,0,1,.672.978v2.684a1.048,1.048,0,0,1-.672.979l-1.147.441a9.564,9.564,0,0,1-.727,1.752l.5,1.126a1.048,1.048,0,0,1-.217,1.166l-1.9,1.9a1.048,1.048,0,0,1-1.166.217l-1.124-.5a9.451,9.451,0,0,1-1.754.726l-.441,1.147a1.048,1.048,0,0,1-.979.672H38.16a1.048,1.048,0,0,1-.978-.672l-.441-1.147a9.542,9.542,0,0,1-1.755-.727l-1.126.5a1.048,1.048,0,0,1-1.166-.217l-1.9-1.9a1.048,1.048,0,0,1-.217-1.167l.5-1.124a9.545,9.545,0,0,1-.727-1.752L29.2,20.291a1.048,1.048,0,0,1-.672-.979V16.628a1.048,1.048,0,0,1,.672-.978l1.148-.442a9.55,9.55,0,0,1,.728-1.755l-.5-1.124a1.048,1.048,0,0,1,.217-1.167l1.9-1.9a1.048,1.048,0,0,1,1.167-.217l1.124.5a9.476,9.476,0,0,1,1.753-.726l.444-1.15A1.048,1.048,0,0,1,38.16,7h2.684a1.048,1.048,0,0,1,.979.673ZM40.5,10.071,40.123,9.1H38.879l-.376.975a1.049,1.049,0,0,1-.736.643,7.392,7.392,0,0,0-2.171.9,1.048,1.048,0,0,1-.976.065l-.953-.424-.879.879.424.953a1.048,1.048,0,0,1-.065.976,7.458,7.458,0,0,0-.9,2.176,1.049,1.049,0,0,1-.643.734l-.972.374v1.244l.972.374a1.048,1.048,0,0,1,.643.733,7.44,7.44,0,0,0,.9,2.173,1.049,1.049,0,0,1,.066.977l-.424.953.88.88.954-.422a1.049,1.049,0,0,1,.972.065,7.448,7.448,0,0,0,2.175.9,1.049,1.049,0,0,1,.737.644l.374.972h1.244l.374-.972a1.048,1.048,0,0,1,.736-.643,7.362,7.362,0,0,0,2.17-.9,1.049,1.049,0,0,1,.976-.067l.954.422.881-.881-.422-.954a1.049,1.049,0,0,1,.065-.972,7.463,7.463,0,0,0,.9-2.173,1.048,1.048,0,0,1,.643-.736l.972-.374V17.348l-.972-.374a1.049,1.049,0,0,1-.644-.737,7.377,7.377,0,0,0-.9-2.173,1.049,1.049,0,0,1-.066-.975l.422-.954-.88-.88-.953.424a1.048,1.048,0,0,1-.976-.065,7.392,7.392,0,0,0-2.171-.9,1.049,1.049,0,0,1-.736-.644Zm-1,2.168a5.732,5.732,0,1,1-5.73,5.73A5.731,5.731,0,0,1,39.5,12.239Zm0,2.1a3.635,3.635,0,1,0,3.636,3.633A3.632,3.632,0,0,0,39.5,14.336ZM61.032,42.525A10.969,10.969,0,1,1,72,31.556,10.99,10.99,0,0,1,61.032,42.525Zm0-2.1a8.872,8.872,0,1,0-8.872-8.872A8.889,8.889,0,0,0,61.032,40.428ZM59.983,25.763V25.28a1.048,1.048,0,0,1,2.1,0v.47a3.983,3.983,0,0,1,2.841,2.388,1.048,1.048,0,1,1-1.933.811,2.139,2.139,0,0,0-2.809-1.056,1.322,1.322,0,0,0-.95,1.277v0a1.1,1.1,0,0,0,.724.948,4.577,4.577,0,0,0,1.257.362h0c1.8.3,3.767,1.127,4.025,3.268.251,2.077-1.4,3.292-3.157,3.629v.453a1.048,1.048,0,0,1-2.1,0v-.468a3.96,3.96,0,0,1-3.15-2.887,1.048,1.048,0,0,1,2.035-.507,2.111,2.111,0,0,0,2.267,1.409h0a2.974,2.974,0,0,0,1.576-.447.943.943,0,0,0,.442-.93h0a1.35,1.35,0,0,0-.9-1.07,5.551,5.551,0,0,0-1.38-.379c-1.766-.288-3.639-1.187-3.738-3.281a3.352,3.352,0,0,1,2.276-3.33,4.326,4.326,0,0,1,.572-.18ZM40.549,39.8a1.048,1.048,0,1,1-2.1,0V32.666a1.048,1.048,0,0,1,2.1,0Zm2.762,3.9a1.048,1.048,0,0,1-1.3-1.644l6.128-4.848a1.048,1.048,0,0,1,1.3,1.644Zm-6.319-1.644a1.048,1.048,0,0,1-1.3,1.644l-6.128-4.848a1.048,1.048,0,0,1,1.3-1.644Z" fill="#fff" fill-rule="evenodd"/>
        </g>
      </g>
      <path id="Tracé_16246" data-name="Tracé 16246" d="M655.506,495.508a63.387,63.387,0,0,0-89.537,0L365.759,695.717A63.313,63.313,0,0,0,455.3,785.255L655.506,585.127a63.34,63.34,0,0,0,0-89.618" transform="translate(303.547 9575.283)" fill="#343434" fill-rule="evenodd"/>
      <g id="Groupe_3259" data-name="Groupe 3259" transform="translate(770.279 9732.545)">
        <path id="Tracé_16229" data-name="Tracé 16229" d="M495.568,148.382a63.242,63.242,0,0,0,0,89.537L695.7,438.129a63.341,63.341,0,0,0,89.618-89.538L585.106,148.382a63.242,63.242,0,0,0-89.537,0" transform="translate(-476.995 -129.81)" fill="#04042c" fill-rule="evenodd"/>
        <g transform="matrix(1, 0, 0, 1, -466.78, -137.04)" filter="url(#Tracé_16236)">
          <path id="Tracé_16236-2" data-name="Tracé 16236" d="M694.417,410.472a63.281,63.281,0,1,0,63.24-63.241,63.325,63.325,0,0,0-63.24,63.241" transform="translate(-26.92 -9.73)" fill="#000043" fill-rule="evenodd"/>
        </g>
        <g id="refonte" transform="translate(225.064 228.455)">
          <path id="Tracé_16248" data-name="Tracé 16248" d="M27.877,55.257a3.968,3.968,0,1,0,3.968,3.968A3.972,3.972,0,0,0,27.877,55.257Zm0,6.247a2.279,2.279,0,1,1,2.279-2.279A2.282,2.282,0,0,1,27.877,61.5Zm16.082-5.322a3.968,3.968,0,1,0,3.968-3.968A3.973,3.973,0,0,0,43.959,56.182Zm6.247,0A2.279,2.279,0,1,1,47.927,53.9,2.282,2.282,0,0,1,50.206,56.182ZM40.077,52.3a3.341,3.341,0,1,0-3.342,3.342A3.345,3.345,0,0,0,40.077,52.3Zm-4.995,0a1.653,1.653,0,1,1,1.653,1.653A1.655,1.655,0,0,1,35.082,52.3Zm4.7,5.943a3.341,3.341,0,1,0,3.341,3.342A3.346,3.346,0,0,0,39.783,58.245Zm0,4.994a1.653,1.653,0,1,1,1.653-1.653A1.655,1.655,0,0,1,39.783,63.24ZM63.287,24.3a.844.844,0,0,0,.422-.731V18.095a.845.845,0,0,0-.422-.731l-4.744-2.739a.844.844,0,0,0-.844,0l-4.322,2.5-9.606-5.546V6.584a.845.845,0,0,0-.422-.731L38.606,3.114a.844.844,0,0,0-.844,0L33.018,5.853a.844.844,0,0,0-.422.731v4.991L22.99,17.121l-4.322-2.5a.844.844,0,0,0-.844,0L13.08,17.364a.844.844,0,0,0-.422.731v5.478a.844.844,0,0,0,.422.731L17.4,26.8V37.891l-4.322,2.5a.844.844,0,0,0-.422.731V46.6a.844.844,0,0,0,.422.731l4.744,2.739a.848.848,0,0,0,.844,0l4.322-2.5,1.912,1.1-6.577,9.484a4.241,4.241,0,0,0-.2,4.566C19.622,65.585,23.932,68,27.535,68h21.3c3.6,0,7.913-2.417,9.411-5.277a4.241,4.241,0,0,0-.2-4.566l-6.577-9.484,1.912-1.1,4.322,2.5a.848.848,0,0,0,.844,0l4.744-2.739a.844.844,0,0,0,.422-.731V41.118a.845.845,0,0,0-.422-.731l-4.322-2.5V26.8Zm-9.066-5.722,3.9-2.251,3.9,2.251v4.5l-3.9,2.251-3.9-2.251ZM34.283,7.071l3.9-2.252,3.9,2.251v4.5l-3.9,2.252-3.9-2.251ZM14.345,18.582l3.9-2.251,3.9,2.251v4.5l-3.9,2.251-3.9-2.251Zm7.8,27.526-3.9,2.251-3.9-2.251V41.6l3.9-2.251,3.9,2.251Zm34.6,15.833c-1.2,2.288-4.97,4.372-7.915,4.372h-21.3c-2.945,0-6.717-2.084-7.915-4.372a2.529,2.529,0,0,1,.091-2.821l9.215-13.288H47.441L56.656,59.12A2.533,2.533,0,0,1,56.746,61.941ZM44.329,28.616H32.037a1.075,1.075,0,0,1-1.073-1.073v-.8a1.074,1.074,0,0,1,1.073-1.073H44.329A1.074,1.074,0,0,1,45.4,26.747v.8a1.073,1.073,0,0,1-1.073,1.073ZM33.113,39.794a.843.843,0,0,0,.15-.481V30.3H43.1v9.008a.848.848,0,0,0,.15.481l3.016,4.35H30.1Zm11.678-.745V30.262a2.763,2.763,0,0,0,2.3-2.719v-.8a2.764,2.764,0,0,0-2.761-2.761H32.037a2.764,2.764,0,0,0-2.761,2.761v.8a2.763,2.763,0,0,0,2.3,2.719v8.786l-5.709,8.233-2.032-1.174V41.117a.845.845,0,0,0-.422-.731l-4.322-2.5V26.8l4.322-2.5a.844.844,0,0,0,.422-.731V18.582l9.606-5.546,4.322,2.5a.848.848,0,0,0,.844,0l4.322-2.5,9.606,5.546v4.991a.844.844,0,0,0,.422.731l4.322,2.5V37.891l-4.322,2.5a.844.844,0,0,0-.422.731v4.991L50.5,47.281Zm17.23,7.059-3.9,2.251-3.9-2.251V41.6l3.9-2.251,3.9,2.251Z" transform="translate(0 0)" fill="#fff"/>
        </g>
      </g>
      <path id="Tracé_16244" data-name="Tracé 16244" d="M148.36,308.32a63.242,63.242,0,0,0,89.537,0l200.21-200.209a63.313,63.313,0,0,0-89.538-89.538L148.36,218.783a63.242,63.242,0,0,0,0,89.537" transform="translate(320.737 9613)" fill="#04740c" fill-rule="evenodd"/>
      <g transform="matrix(1, 0, 0, 1, 303.5, 9595.5)" filter="url(#Tracé_16245)">
        <path id="Tracé_16245-2" data-name="Tracé 16245" d="M347.208,63.351A63.322,63.322,0,1,0,410.449.11a63.309,63.309,0,0,0-63.241,63.241" transform="translate(0.29 17.39)" fill="#06820f" fill-rule="evenodd"/>
      </g>
      <g transform="matrix(1, 0, 0, 1, 303.5, 9595.5)" filter="url(#Tracé_16247)">
        <path id="Tracé_16247-2" data-name="Tracé 16247" d="M347.208,757.68a63.322,63.322,0,1,0,63.241-63.241,63.309,63.309,0,0,0-63.241,63.241" transform="translate(0.29 -36.94)" fill="#474747" fill-rule="evenodd"/>
      </g>
      <g id="strategy" transform="translate(681 10277.443)">
        <path id="Tracé_16249" data-name="Tracé 16249" d="M125.593,89.643a3.295,3.295,0,1,0-2.63-1.315l-5.407,7.556a3.282,3.282,0,0,0-3.265.719l-3.6-2.045a3.291,3.291,0,1,0-6.434,0l-3.6,2.045a3.286,3.286,0,1,0,.977,1.717l3.6-2.046a3.283,3.283,0,0,0,4.48,0l3.6,2.045a3.291,3.291,0,1,0,5.847-1.285l5.407-7.556A3.281,3.281,0,0,0,125.593,89.643Zm0-4.608a1.316,1.316,0,1,1-1.316,1.317A1.318,1.318,0,0,1,125.593,85.036ZM98.409,100.328a1.317,1.317,0,1,1,1.316-1.317A1.318,1.318,0,0,1,98.409,100.328Zm9.062-5.145a1.316,1.316,0,1,1,1.316-1.317A1.318,1.318,0,0,1,107.47,95.183Zm9.062,5.145a1.317,1.317,0,1,1,1.317-1.317A1.318,1.318,0,0,1,116.532,100.328Z" transform="translate(-82.854 -66.578)" fill="#fff"/>
        <path id="Tracé_16250" data-name="Tracé 16250" d="M54.482,54.818H2.76a.81.81,0,0,1-.809-.81V13.694a.81.81,0,0,1,.809-.81h4.6a.977.977,0,0,0,0-1.954H2.76A2.765,2.765,0,0,0,0,13.694V54.009a2.765,2.765,0,0,0,2.76,2.764H9.487v2.151a2.223,2.223,0,0,0,2.218,2.222h9.767l-4.6,8.99a.976.976,0,1,0,1.737.891l5.053-9.881H34.453l5.053,9.881a.976.976,0,1,0,1.737-.891l-4.6-8.99h9.767a2.223,2.223,0,0,0,2.218-2.222V56.773h5.852a.977.977,0,0,0,0-1.954Zm-7.8,4.1a.268.268,0,0,1-.267.267H11.706a.268.268,0,0,1-.267-.267V56.773h35.24ZM11.262,12.885h44.1a.81.81,0,0,1,.809.81v9.291a.976.976,0,1,0,1.951,0V13.694a2.765,2.765,0,0,0-2.76-2.764H34.474V9.01a2.453,2.453,0,0,0-2.448-2.452H26.091A2.453,2.453,0,0,0,23.644,9.01V10.93H11.262a.977.977,0,0,0,0,1.954ZM25.595,9.01a.5.5,0,0,1,.5-.5h5.935a.5.5,0,0,1,.5.5V10.93H25.6V9.01Z" transform="translate(0 0)" fill="#fff"/>
        <path id="Tracé_16251" data-name="Tracé 16251" d="M98.389,160.679a.987.987,0,0,0-.987.987v8.724a.987.987,0,0,0,.987.987h4.005a.987.987,0,0,0,.987-.987v-8.724a.987.987,0,0,0-.987-.987Zm3.018,8.724H99.377v-6.749h2.031Zm6.043-13.77a.987.987,0,0,0-.987.987v13.77a.987.987,0,0,0,.987.987h4.005a.987.987,0,0,0,.987-.987v-13.77a.987.987,0,0,0-.987-.987Zm3.018,13.77h-2.031v-11.8h2.031Zm6.043-8.724a.987.987,0,0,0-.987.987v8.724a.987.987,0,0,0,.987.987h4.005a.987.987,0,0,0,.987-.987v-8.724a.987.987,0,0,0-.987-.987Zm3.018,8.724H117.5v-6.749h2.031Zm6.043-2.9a.987.987,0,0,0-.987.987v2.9a.987.987,0,0,0,.987.987h4.005a.987.987,0,1,0,0-1.975h-3.018v-1.911a.987.987,0,0,0-.987-.987Zm25.9,9.5-5.664-9.811a12.911,12.911,0,1,0-12.766,3.643,12.975,12.975,0,0,0,3.361.445,12.742,12.742,0,0,0,2.906-.336l5.663,9.811a3.753,3.753,0,1,0,6.5-3.753Zm-17.919-8.075a10.93,10.93,0,1,1,8.293-1.092A10.859,10.859,0,0,1,133.557,167.933Zm15.559,11.491a1.78,1.78,0,0,1-2.43-.651l-5.448-9.439a12.961,12.961,0,0,0,3.079-1.779l5.45,9.44a1.777,1.777,0,0,1-.651,2.43Z" transform="translate(-85.271 -120.19)" fill="#fff"/>
        <path id="Tracé_16252" data-name="Tracé 16252" d="M340.63,183.4a9.343,9.343,0,0,0-.467-6.768.987.987,0,1,0-1.786.841,7.395,7.395,0,1,1-2.229-2.755.987.987,0,1,0,1.191-1.575A9.376,9.376,0,1,0,340.63,183.4Z" transform="translate(-280.564 -143.316)" fill="#fff"/>
      </g>
      <g id="Appréciation_de_l_Expérience" data-name="Appréciation de l´Expérience" transform="translate(681.5 9644.001)">
        <path id="Tracé_16253" data-name="Tracé 16253" d="M61.108,32.508A45.184,45.184,0,0,0,64.3,24.34c2.343-8.462,1.209-15.548-3.2-19.952s-11.49-5.539-19.952-3.2a45.211,45.211,0,0,0-8.168,3.192A43.34,43.34,0,0,0,22.922.718C15.319-.948,8.912.355,4.879,4.388A15.849,15.849,0,0,0,.539,14.9,32.134,32.134,0,0,0,2.8,27.761a6.029,6.029,0,0,0,0,9.478A32.134,32.134,0,0,0,.539,50.1a15.852,15.852,0,0,0,4.34,10.517c2.89,2.891,6.945,4.381,11.843,4.381a26.65,26.65,0,0,0,3.05-.181A40.036,40.036,0,0,0,32.99,60.619a45.182,45.182,0,0,0,8.162,3.189A30.544,30.544,0,0,0,49.262,65c4.864,0,8.937-1.483,11.842-4.388,4.033-4.032,5.336-10.44,3.67-18.043a43.331,43.331,0,0,0-3.666-10.062ZM41.661,3.031C49.432.879,55.858,1.84,59.755,5.737s4.858,10.323,2.706,18.094A42.291,42.291,0,0,1,60,30.42a62.447,62.447,0,0,0-6.742-9.713,6.032,6.032,0,0,0,.017-7.427L51.771,14.45a4.091,4.091,0,0,1,.868,2.535,4.13,4.13,0,1,1-2.024-3.556l.975-1.639a6.031,6.031,0,0,0-6.8.442A62.516,62.516,0,0,0,35.072,5.49a42.335,42.335,0,0,1,6.589-2.459ZM6.228,5.737C11.385.58,20.841.772,30.9,5.484a64.978,64.978,0,0,0-14.125,10.8A66.76,66.76,0,0,0,8.241,26.7a6.092,6.092,0,0,0-1.7-.241,6.024,6.024,0,0,0-2.055.361C1.18,17.813,1.8,10.165,6.228,5.737ZM16.772,63.079c-4.315,0-7.983-1.255-10.545-3.816C1.8,54.835,1.18,47.188,4.485,38.18a6.025,6.025,0,0,0,3.754.116,66.723,66.723,0,0,0,8.539,10.418,64.989,64.989,0,0,0,14.12,10.8,34.081,34.081,0,0,1-14.126,3.566Zm16.214-4.6A62.288,62.288,0,0,1,18.127,47.364a64.924,64.924,0,0,1-8.15-9.9,6.037,6.037,0,0,0,2.6-4.964c0-.179-.007-.36-.023-.538l-1.9.168c.011.122.017.246.017.369a4.129,4.129,0,1,1-.436-1.85l1.7-.855a6.048,6.048,0,0,0-1.962-2.266,64.968,64.968,0,0,1,8.146-9.893A62.276,62.276,0,0,1,32.991,6.522a59.818,59.818,0,0,1,10.494,7.109,6.037,6.037,0,0,0,8.375,8.374A59.833,59.833,0,0,1,58.969,32.5,62.305,62.305,0,0,1,47.856,47.365c-.508.508-1.031,1.013-1.558,1.507a6.033,6.033,0,0,0-7.6-.159l1.171,1.506A4.1,4.1,0,0,1,42.4,49.35a4.131,4.131,0,1,1-3.556,2.025L37.207,50.4a6.036,6.036,0,0,0-.223,5.75q-2,1.28-4,2.326Zm26.769.788c-3.9,3.9-10.323,4.858-18.094,2.707a42.318,42.318,0,0,1-6.584-2.458q1.533-.857,3.012-1.806a6.037,6.037,0,0,0,9.455-7.389q.843-.789,1.66-1.6a65,65,0,0,0,10.8-14.126c4.712,10.063,4.9,19.519-.252,24.676Zm0,0" transform="translate(0)" fill="#fff"/>
        <path id="Tracé_16254" data-name="Tracé 16254" d="M257.19,267.627h-1.969v-4.8a4.783,4.783,0,0,0-3.471-4.586l-.712-.2-.517,1.834.712.2a2.869,2.869,0,0,1,2.082,2.751v4.8h-3.431v-2.6h-1.906v2.6H239.4v1.905H257.19Zm0,0" transform="translate(-208.562 -225.274)" fill="#fff"/>
        <path id="Tracé_16255" data-name="Tracé 16255" d="M152.006,126.569l3.972,1.121.518-1.835-3.893-1.1v-2.531a6.669,6.669,0,0,0,2.922-5.515v-2.8a6.67,6.67,0,0,0-13.341,0v2.8a6.669,6.669,0,0,0,2.922,5.515v2.531l-6.439,1.816a4.783,4.783,0,0,0-3.471,4.586v4.8h-1.969v1.906h11.562v-1.906h-2.35v-2.6h-1.906v2.6H137.1v-4.8a2.869,2.869,0,0,1,2.082-2.751l6.518-1.838a4.274,4.274,0,0,0,6.3,0Zm-3.152-17.417a4.77,4.77,0,0,1,4.764,4.765v1.061l-2-2.65h-7.253a4.772,4.772,0,0,1,4.491-3.177Zm-4.764,7.56v-2.477h6.577l2.793,3.694a4.764,4.764,0,0,1-9.371-1.217Zm2.922,8.459v-2.05a6.631,6.631,0,0,0,3.684,0v2.05a2.369,2.369,0,0,1-3.684,0Zm0,0" transform="translate(-115.868 -93.62)" fill="#fff"/>
        <path id="Tracé_16256" data-name="Tracé 16256" d="M72.979,147.681l-2.684-.757.518-1.834,2.684.757Zm4.184-.8-.518,1.834-1.834-.517.518-1.834Zm5.331-20.6H84.4v1.906H82.495Zm-6.1,36.465H78.3v1.906H76.4Zm-35.83-20.964h1.906v1.906H40.566Zm0,0" transform="translate(-34.984 -110.228)" fill="#fff"/>
      </g>
    </g>
    <text id="_01" data-name="01" transform="translate(496.697 9939.552) rotate(-45)" fill="#fff" font-size="50" font-family="Poppins-SemiBold, Poppins" font-weight="600"><tspan x="0" y="0">01</tspan></text>
    <text id="_02" data-name="02" transform="matrix(0.695, 0.719, -0.719, 0.695, 788.725, 9817.717)" fill="#fff" font-size="50" font-family="Poppins-SemiBold, Poppins" font-weight="600"><tspan x="0" y="0">02</tspan></text>
    <text id="_03" data-name="03" transform="translate(892.314 10189.447) rotate(-45)" fill="#fff" font-size="50" font-family="Poppins-SemiBold, Poppins" font-weight="600"><tspan x="0" y="0">03</tspan></text>
    <text id="_04" data-name="04" transform="matrix(0.695, 0.719, -0.719, 0.695, 549.755, 10214.87)" fill="#fff" font-size="50" font-family="Poppins-SemiBold, Poppins" font-weight="600"><tspan x="0" y="0">04</tspan></text>
  </g>
</svg>
