<svg xmlns="http://www.w3.org/2000/svg" width="35.997" height="36" viewBox="0 0 35.997 36">
  <g id="Organes_fonctionnels" data-name="Organes fonctionnels" transform="translate(-7.023 -7)">
    <path id="Tracé_16062" data-name="Tracé 16062" d="M97.191,86.293h6.273M88.336,101.257H93.1m19.03,0h-4.581m5.924,8.332H106.5m-6.17-23.3v6.635m-9.608,8.329v6.635m19.123-6.635v8.332m-5.18-13.838V92.928H95.994v2.823" transform="translate(-75.58 -73.158)" fill="none" stroke="#c3c3c3" stroke-linecap="round" stroke-linejoin="round" stroke-width="1"/>
    <circle id="Ellipse_123" data-name="Ellipse 123" cx="1.734" cy="1.734" r="1.734" transform="translate(29.211 7.5)" fill="none" stroke="#c3c3c3" stroke-linecap="round" stroke-linejoin="round" stroke-width="1"/>
    <path id="Tracé_16063" data-name="Tracé 16063" d="M305.661,57.866v2.456h-5.779V57.866a1.878,1.878,0,0,1,1.878-1.878h2.023A1.878,1.878,0,0,1,305.661,57.866Z" transform="translate(-271.835 -45.02)" fill="none" stroke="#c3c3c3" stroke-linecap="round" stroke-linejoin="round" stroke-width="1"/>
    <circle id="Ellipse_124" data-name="Ellipse 124" cx="1.734" cy="1.734" r="1.734" transform="translate(19.027 22.554)" fill="none" stroke="#c3c3c3" stroke-linecap="round" stroke-linejoin="round" stroke-width="1"/>
    <path id="Tracé_16064" data-name="Tracé 16064" d="M160.785,272.021v2.456h-5.779v-2.456a1.878,1.878,0,0,1,1.878-1.878h2.023A1.878,1.878,0,0,1,160.785,272.021Z" transform="translate(-137.129 -244.189)" fill="none" stroke="#c3c3c3" stroke-linecap="round" stroke-linejoin="round" stroke-width="1"/>
    <circle id="Ellipse_125" data-name="Ellipse 125" cx="1.734" cy="1.734" r="1.734" transform="translate(8.679 22.554)" fill="none" stroke="#c3c3c3" stroke-linecap="round" stroke-linejoin="round" stroke-width="1"/>
    <path id="Tracé_16065" data-name="Tracé 16065" d="M13.3,272.021v2.456H7.523v-2.456A1.878,1.878,0,0,1,9.4,270.143h2.023A1.878,1.878,0,0,1,13.3,272.021Z" transform="translate(0 -244.189)" fill="none" stroke="#c3c3c3" stroke-linecap="round" stroke-linejoin="round" stroke-width="1"/>
    <circle id="Ellipse_126" data-name="Ellipse 126" cx="1.734" cy="1.734" r="1.734" transform="translate(37.896 22.554)" fill="none" stroke="#c3c3c3" stroke-linecap="round" stroke-linejoin="round" stroke-width="1"/>
    <path id="Tracé_16066" data-name="Tracé 16066" d="M429.489,272.021v2.456H423.71v-2.456a1.878,1.878,0,0,1,1.878-1.878h2.023A1.878,1.878,0,0,1,429.489,272.021Z" transform="translate(-386.97 -244.189)" fill="none" stroke="#c3c3c3" stroke-linecap="round" stroke-linejoin="round" stroke-width="1"/>
    <circle id="Ellipse_127" data-name="Ellipse 127" cx="1.734" cy="1.734" r="1.734" transform="translate(37.896 34.698)" fill="none" stroke="#c3c3c3" stroke-linecap="round" stroke-linejoin="round" stroke-width="1"/>
    <path id="Tracé_16067" data-name="Tracé 16067" d="M429.489,445.814v2.456H423.71v-2.456a1.878,1.878,0,0,1,1.878-1.878h2.023A1.878,1.878,0,0,1,429.489,445.814Z" transform="translate(-386.97 -405.771)" fill="none" stroke="#c3c3c3" stroke-linecap="round" stroke-linejoin="round" stroke-width="1"/>
    <circle id="Ellipse_128" data-name="Ellipse 128" cx="1.734" cy="1.734" r="1.734" transform="translate(27.548 34.698)" fill="none" stroke="#c3c3c3" stroke-linecap="round" stroke-linejoin="round" stroke-width="1"/>
    <path id="Tracé_16068" data-name="Tracé 16068" d="M282.005,445.814v2.456h-5.779v-2.456a1.878,1.878,0,0,1,1.878-1.878h2.023A1.878,1.878,0,0,1,282.005,445.814Z" transform="translate(-249.839 -405.771)" fill="none" stroke="#c3c3c3" stroke-linecap="round" stroke-linejoin="round" stroke-width="1"/>
    <circle id="Ellipse_129" data-name="Ellipse 129" cx="1.734" cy="1.734" r="1.734" transform="translate(27.548 22.554)" fill="none" stroke="#c3c3c3" stroke-linecap="round" stroke-linejoin="round" stroke-width="1"/>
    <path id="Tracé_16069" data-name="Tracé 16069" d="M280.364,274.475H282v-2.456a1.879,1.879,0,0,0-1.879-1.879H278.1a1.879,1.879,0,0,0-1.879,1.879v2.456h1.638" transform="translate(-249.837 -244.186)" fill="none" stroke="#c3c3c3" stroke-linecap="round" stroke-linejoin="round" stroke-width="1"/>
    <circle id="Ellipse_130" data-name="Ellipse 130" cx="1.734" cy="1.734" r="1.734" transform="translate(13.843 34.695)" fill="none" stroke="#c3c3c3" stroke-linecap="round" stroke-linejoin="round" stroke-width="1"/>
    <path id="Tracé_16070" data-name="Tracé 16070" d="M85.4,448.224h1.638v-2.457a1.878,1.878,0,0,0-1.878-1.878H83.142a1.878,1.878,0,0,0-1.879,1.878v2.457H82.9" transform="translate(-68.467 -405.728)" fill="none" stroke="#c3c3c3" stroke-linecap="round" stroke-linejoin="round" stroke-width="1"/>
    <circle id="Ellipse_131" data-name="Ellipse 131" cx="1.734" cy="1.734" r="1.734" transform="translate(17.364 7.5)" fill="none" stroke="#c3c3c3" stroke-linecap="round" stroke-linejoin="round" stroke-width="1"/>
    <path id="Tracé_16071" data-name="Tracé 16071" d="M135.494,60.325h1.638V57.868a1.878,1.878,0,0,0-1.878-1.878h-2.023a1.878,1.878,0,0,0-1.878,1.878v2.457h1.638" transform="translate(-115.137 -45.022)" fill="none" stroke="#c3c3c3" stroke-linecap="round" stroke-linejoin="round" stroke-width="1"/>
  </g>
</svg>
