<svg xmlns="http://www.w3.org/2000/svg" width="55.027" height="51.181" viewBox="0 0 55.027 51.181">
  <g id="value" transform="translate(-0.499 -18.649)">
    <path id="Tracé_16269" data-name="Tracé 16269" d="M50.039,43.08l-1.621.659a5.265,5.265,0,0,0-.393-1.006,17.694,17.694,0,0,0-12.386-9.245,7.567,7.567,0,1,0-6.715,0,17.7,17.7,0,0,0-12.391,9.245,5.169,5.169,0,0,0-.577,2.295c-.531.422-2.881,2.389-5.548,4.6L9.471,48.3a2.74,2.74,0,0,0-3.817-.663L2.166,50.094A2.739,2.739,0,0,0,1.5,53.911l9.913,14.077a2.743,2.743,0,0,0,3.817.663l3.488-2.456a2.739,2.739,0,0,0,.662-3.817l-.7-.992a11.454,11.454,0,0,1,7.051-1.612c4.427.04,10.27,2.645,16.307-1.969l11.423-8.732a3.482,3.482,0,0,0-3.427-5.993Zm-24.2-16.364a6.446,6.446,0,1,1,6.446,6.446,6.453,6.453,0,0,1-6.446-6.446ZM17.183,44.154a4.168,4.168,0,0,1,.345-.9,16.617,16.617,0,0,1,29.5,0,4.138,4.138,0,0,1,.345.914L39.482,47.37a3.8,3.8,0,0,0-3.055-3.309h0l-9.291-1.783-.023,0a13.787,13.787,0,0,0-9.078,1.386q-.432.234-.851.493Zm.893,21.124-3.488,2.456a1.621,1.621,0,0,1-2.255-.391L2.42,53.265a1.618,1.618,0,0,1,.392-2.254L6.3,48.554a1.619,1.619,0,0,1,2.254.391c.576.853,9.86,14,9.912,14.077A1.619,1.619,0,0,1,18.076,65.277Zm34.709-17.1L41.361,56.914c-5.571,4.259-10.851,1.807-15.507,1.745a13.06,13.06,0,0,0-7.807,1.8l-6.991-9.91c4.988-4.051,5.541-4.838,7.5-5.9a12.691,12.691,0,0,1,8.367-1.272l9.29,1.783a2.67,2.67,0,0,1-.5,5.292H28.92a.561.561,0,0,0,0,1.121h6.792a3.8,3.8,0,0,0,3.7-2.967l11.049-4.49a2.361,2.361,0,0,1,2.323,4.063Z" transform="translate(0)" fill="#04740c" stroke="#04740c" stroke-width="1"/>
  </g>
</svg>
