<svg xmlns="http://www.w3.org/2000/svg" width="35.06" height="35" viewBox="0 0 35.06 35">
  <g id="capitalhumain" transform="translate(0 -0.435)">
    <circle id="Ellipse_99" data-name="Ellipse 99" cx="0.562" cy="0.562" r="0.562" transform="translate(2.207 25.501)" fill="#04740c"/>
    <circle id="Ellipse_100" data-name="Ellipse 100" cx="0.562" cy="0.562" r="0.562" transform="translate(2.207 27.714)" fill="#04740c"/>
    <path id="Tracé_4614" data-name="Tracé 4614" d="M235.633,100.071a1.645,1.645,0,1,0-1.645,1.645A1.647,1.647,0,0,0,235.633,100.071Zm-1.645.6a.6.6,0,1,1,.6-.6A.6.6,0,0,1,233.988,100.673Z" transform="translate(-216.458 -91.291)" fill="#04740c"/>
    <path id="Tracé_4615" data-name="Tracé 4615" d="M34.424,22.7a2.174,2.174,0,0,0-3.074,0l-3.483,3.483v-1.69a.514.514,0,1,0-1.027,0v2.717l-.558.558H23.527a2.175,2.175,0,0,0-1.194-3.221V21.715a2.991,2.991,0,0,0-.745-1.977h3.276a1.979,1.979,0,0,1,1.976,1.977v.38a.514.514,0,1,0,1.027,0v-.38A3.008,3.008,0,0,0,25.4,18.76a3.277,3.277,0,0,0-.991-5.294,8.354,8.354,0,0,0,1.453-4.7,8.258,8.258,0,0,0-2.51-5.958.514.514,0,0,0-.717.735,7.239,7.239,0,0,1,2.2,5.223,7.32,7.32,0,0,1-1.493,4.424q-.138-.012-.276-.012A3.28,3.28,0,0,0,20.3,14.7a3.3,3.3,0,0,0-1.133-1.084,1.219,1.219,0,0,0,.114-.257l.317-1.015,1.038.233A1.2,1.2,0,0,0,21.941,12l.6-1.036a1.2,1.2,0,0,0-.157-1.419l-.72-.782.72-.782a1.2,1.2,0,0,0,.157-1.419l-.6-1.036a1.2,1.2,0,0,0-1.308-.573L19.6,5.187l-.317-1.015a1.2,1.2,0,0,0-1.15-.846h-1.2a1.2,1.2,0,0,0-1.15.846l-.317,1.015-1.038-.233a1.2,1.2,0,0,0-1.308.573l-.6,1.036a1.2,1.2,0,0,0,.157,1.419l.72.782-.72.782a1.2,1.2,0,0,0-.157,1.419l.6,1.036a1.2,1.2,0,0,0,1.308.573l1.038-.233.317,1.015a1.215,1.215,0,0,0,.114.257A3.3,3.3,0,0,0,14.763,14.7,3.28,3.28,0,0,0,12,13.177c-.093,0-.185,0-.276.012A7.3,7.3,0,0,1,17.53,1.462a7.229,7.229,0,0,1,3.288.78.514.514,0,1,0,.463-.917A8.246,8.246,0,0,0,17.53.435a8.331,8.331,0,0,0-6.878,13.031,3.277,3.277,0,0,0-.991,5.294,3.008,3.008,0,0,0-2.468,2.955v2.732H5.454v-.593a.514.514,0,0,0-.514-.514H.514A.514.514,0,0,0,0,23.854V34.921a.514.514,0,0,0,.514.514H4.941a.514.514,0,0,0,.514-.514v-.593H7.418l6.735.423a.514.514,0,1,0,.064-1.025l-6.273-.394V25.209l.956-.755a4.908,4.908,0,0,1,6.133.041l1.067.864a.513.513,0,0,0,.323.114h5.257a1.147,1.147,0,0,1,0,2.293H15.732a.513.513,0,0,0-.363.15l-.726.726a.514.514,0,1,0,.726.726l.576-.576h10.55a.514.514,0,0,0,.363-.15l5.218-5.219A1.147,1.147,0,0,1,33.7,25.047l-5.706,5.706a2.261,2.261,0,0,1-.929.559l-7.785,2.4a5,5,0,0,1-1.8.214l-.873-.055a.514.514,0,1,0-.064,1.025l.873.055q.191.012.382.012a6.01,6.01,0,0,0,1.781-.269l7.784-2.4a3.292,3.292,0,0,0,1.352-.814l5.706-5.706a2.177,2.177,0,0,0,0-3.075ZM23.065,14.2a2.253,2.253,0,1,1-2.253,2.253A2.256,2.256,0,0,1,23.065,14.2Zm-6.133-1.027a.177.177,0,0,1-.17-.125l-.447-1.431a.514.514,0,0,0-.233-.292l-.046-.027a.513.513,0,0,0-.37-.057l-1.463.328a.178.178,0,0,1-.193-.085l-.6-1.036a.177.177,0,0,1,.023-.21l1.016-1.1a.514.514,0,0,0,.136-.348V8.739a.514.514,0,0,0-.136-.348l-1.016-1.1a.177.177,0,0,1-.023-.21l.6-1.036a.178.178,0,0,1,.193-.085l1.463.328a.513.513,0,0,0,.37-.057l.046-.027a.513.513,0,0,0,.233-.292l.447-1.431a.177.177,0,0,1,.17-.125h1.2a.177.177,0,0,1,.17.125l.447,1.431a.513.513,0,0,0,.233.291l.047.027a.513.513,0,0,0,.37.057l1.463-.328a.177.177,0,0,1,.193.085l.6,1.036a.177.177,0,0,1-.023.21l-1.016,1.1a.514.514,0,0,0-.136.348v.053a.514.514,0,0,0,.136.348l1.016,1.1a.178.178,0,0,1,.023.21l-.6,1.036a.178.178,0,0,1-.193.085L19.4,11.246a.513.513,0,0,0-.369.056l-.047.027a.513.513,0,0,0-.233.291L18.3,13.052a.177.177,0,0,1-.17.125h-1.2Zm.6,1.027a2.253,2.253,0,1,1-2.253,2.253A2.256,2.256,0,0,1,17.53,14.2ZM12,14.2a2.253,2.253,0,1,1-2.253,2.253A2.256,2.256,0,0,1,12,14.2Zm-7.569,20.2h-3.4V24.367h3.4Zm1.027-8.934H6.918V33.3H5.454ZM9.995,22.7a5.921,5.921,0,0,0-1.731.948l-.044.034V21.715A1.979,1.979,0,0,1,10.2,19.738h3.276a2.991,2.991,0,0,0-.745,1.977v.71a5.907,5.907,0,0,0-2.733.275Zm5.685,1a5.938,5.938,0,0,0-1.925-1.04v-.943a1.979,1.979,0,0,1,1.977-1.977h3.6a1.979,1.979,0,0,1,1.977,1.977v2.732h-4.7Z" transform="translate(0)" fill="#04740c"/>
  </g>
</svg>
