<svg xmlns="http://www.w3.org/2000/svg" width="37.657" height="35" viewBox="0 0 37.657 35">
  <g id="gouvernance_partner" data-name="gouvernance partner" transform="translate(-11.541 -30.882)">
    <path id="Tracé_4440" data-name="Tracé 4440" d="M36.358,59.108a.282.282,0,0,0-.283-.28H27.99a.281.281,0,0,0-.279.28V60.59a.281.281,0,0,0,.279.28h8.085a.282.282,0,0,0,.283-.28V59.108Zm-1.317,2.534h-6.01v1.178a.2.2,0,0,0,.192.194h5.622a.2.2,0,0,0,.192-.194Zm-8.818-6.6,1.98,3.012h7.363l.758-2.519L37.5,53.362V48.546a.9.9,0,0,0-.965-.779h-.9l-.065.082v4.028a.386.386,0,0,1-.773,0V43.356a.475.475,0,0,0-.519-.395h-.4a.475.475,0,0,0-.519.395V48.8a.386.386,0,0,1-.773,0V42.139a.989.989,0,0,0-1.933,0V48.8a.384.384,0,0,1-.769,0V43.652c0-.214-.239-.395-.519-.395h-.406c-.279,0-.519.181-.519.395v5.58a.385.385,0,0,1-.769,0V46.017c0-.214-.239-.395-.522-.395h-.4c-.279,0-.519.181-.519.395v9.027Zm-.773-3.982L23.9,49.969l-1.106-2.208-1.625-2.07,4.226-6.026,3.605.108,1.592,1.118a1.506,1.506,0,0,0-.707,1.248v.446a2.335,2.335,0,0,0-.925-.1,1.232,1.232,0,0,0-1.288,1.166v1.3a2.342,2.342,0,0,0-.925-.1,1.235,1.235,0,0,0-1.291,1.165v5.044Zm-5.212-5.4,4.643-6.618a.281.281,0,0,0-.069-.39L23.6,37.806a.278.278,0,0,0-.388.068l-4.643,6.619a.278.278,0,0,0,.069.39l1.212.851A.284.284,0,0,0,20.239,45.666ZM18.527,43.2l3.453-4.924-.965-.676a.194.194,0,0,0-.268.048l-3.228,4.6a.2.2,0,0,0,.047.27Zm17.04,3.428V44.384l.816.573a.452.452,0,0,1,.043.629Zm-2.553-5.414,2.06-1.446,3.605-.108,4.226,6.026-1.581,2c-.088.1-1.11,2.227-1.15,2.274L38.27,51.3V48.546A1.654,1.654,0,0,0,36.532,47h-.265l.754-.921a1.215,1.215,0,0,0-.2-1.749l-1.259-.884v-.086a1.235,1.235,0,0,0-1.291-1.166,2.306,2.306,0,0,0-.921.1,1.467,1.467,0,0,0-.341-1.07Zm6.173-2.172,4.643,6.618a.28.28,0,0,0,.388.069l1.215-.851a.282.282,0,0,0,.069-.39L40.86,37.874a.282.282,0,0,0-.392-.068l-1.212.851A.28.28,0,0,0,39.187,39.048Zm2.9-.766L45.539,43.2l.965-.681a.2.2,0,0,0,.047-.27l-3.228-4.6a.2.2,0,0,0-.272-.048ZM37.127,59.108V60.59a1.052,1.052,0,0,1-1.052,1.051h-.261l0,1.178a.967.967,0,0,1-.965.965H29.223a.965.965,0,0,1-.965-.965V61.641H27.99a1.052,1.052,0,0,1-1.048-1.051V59.108a1.048,1.048,0,0,1,.461-.87l-1.886-2.867a.4.4,0,0,1-.065-.212V52l-2.078-1.459a.408.408,0,0,1-.123-.143l-1.132-2.259-1.444-1.825a1.052,1.052,0,0,1-1.27.048l-1.212-.851a1.051,1.051,0,0,1-.257-1.464l.149-.214-.961-.682a.967.967,0,0,1-.236-1.344l3.228-4.6a.965.965,0,0,1,1.342-.235l.965.676.156-.219a1.049,1.049,0,0,1,1.462-.257l1.215.851a1.058,1.058,0,0,1,.446.877l3.431.1a.385.385,0,0,1,.21.07L31.5,40.592a1.894,1.894,0,0,1,.852.145l2.369-1.662a.384.384,0,0,1,.21-.07l3.431-.1a1.048,1.048,0,0,1,.446-.877l1.212-.851a1.054,1.054,0,0,1,1.465.257l.152.219.965-.676a.969.969,0,0,1,1.346.235l3.228,4.6a.968.968,0,0,1-.236,1.344l-.961.682.149.214a1.051,1.051,0,0,1-.258,1.464l-1.212.851a1.052,1.052,0,0,1-1.269-.047l-1.444,1.825L40.816,50.4a.346.346,0,0,1-.123.143l-2.423,1.7v1.213a.363.363,0,0,1-.047.183l-1.2,2.226L36.358,58.1a1.053,1.053,0,0,1,.769,1.012ZM17.178,56.4a17.417,17.417,0,0,1-2.416-9.422l1.748,1.946.573-.515-2.365-2.634a.386.386,0,0,0-.544-.029l-2.633,2.365.515.573,1.933-1.739a18.218,18.218,0,0,0,2.521,9.839,18.642,18.642,0,0,0,8.15,7.545l.33-.7A17.883,17.883,0,0,1,17.178,56.4ZM49.14,46.411l-.769.06a17.868,17.868,0,0,1-2.358,10.385,17.43,17.43,0,0,1-6.95,6.8l.809-2.487-.733-.239-1.1,3.362a.382.382,0,0,0,.247.489l3.362,1.1.239-.733-2.474-.807a18.179,18.179,0,0,0,7.262-7.1A18.636,18.636,0,0,0,49.14,46.411ZM21.817,34.8l-.435-.636a18.658,18.658,0,0,1,10.61-3.286A18.183,18.183,0,0,1,41.77,33.62l-.537-2.546.754-.16.733,3.463a.389.389,0,0,1-.3.457l-3.464.732-.16-.754,2.561-.541a17.449,17.449,0,0,0-9.369-2.619A17.906,17.906,0,0,0,21.817,34.8Z" transform="translate(0)" fill="#04740c" fill-rule="evenodd"/>
  </g>
</svg>
