<svg xmlns="http://www.w3.org/2000/svg" width="27.999" height="28" viewBox="0 0 27.999 28">
  <path id="referral-alt_2_" data-name="referral-alt (2)" d="M18.908,13.658,15.066,17.5l3.842,3.842a1.166,1.166,0,1,1-1.65,1.65l-4.325-4.325H10.5a1.167,1.167,0,1,1,0-2.333h2.434l4.325-4.325a1.166,1.166,0,1,1,1.65,1.65ZM4.083,12.833A2.917,2.917,0,1,0,1.167,9.917,2.916,2.916,0,0,0,4.083,12.833Zm19.833-7A2.917,2.917,0,1,0,21,2.917,2.916,2.916,0,0,0,23.917,5.833ZM21,19.25a2.917,2.917,0,1,0,2.917-2.917A2.916,2.916,0,0,0,21,19.25ZM4.083,14A4.141,4.141,0,0,0,.024,17.263a1.168,1.168,0,0,0,1.142,1.4H7a1.168,1.168,0,0,0,1.142-1.4A4.141,4.141,0,0,0,4.083,14ZM21,11.667h5.833a1.168,1.168,0,0,0,1.142-1.4,4.156,4.156,0,0,0-8.118,0A1.168,1.168,0,0,0,21,11.667Zm2.917,11.667A4.14,4.14,0,0,0,19.858,26.6,1.168,1.168,0,0,0,21,28h5.833a1.168,1.168,0,0,0,1.142-1.4A4.142,4.142,0,0,0,23.917,23.333Z" transform="translate(0)" fill="#04042c"/>
</svg>
