<svg id="ressources" xmlns="http://www.w3.org/2000/svg" width="50" height="50" viewBox="0 0 50 50">
  <path id="Tracé_4577" data-name="Tracé 4577" d="M47.908,22.5H45V16.443a2.28,2.28,0,0,0-2.277-2.277H40V12.155L27.012,0H6.667V8.333H2.277A2.28,2.28,0,0,0,0,10.61V48.3l.048,0a2.14,2.14,0,0,0,.392.858,2.117,2.117,0,0,0,1.7.839h37.3a2.116,2.116,0,0,0,2.042-1.511L50,25.124v-.147A2.232,2.232,0,0,0,47.908,22.5ZM25.833,1.907a.1.1,0,0,1,.17-.07l12.16,11.327a.1.1,0,0,1-.07.169H25.833Zm-12.5,2.26h8.333a.833.833,0,0,1,0,1.667H13.333a.833.833,0,1,1,0-1.667Zm0,5.833h8.333a.833.833,0,0,1,0,1.667H13.333a.833.833,0,1,1,0-1.667Zm0,5.833h20a.833.833,0,0,1,0,1.667h-20a.833.833,0,1,1,0-1.667ZM8.567,24.011l-6.9,18.927V10.61a.61.61,0,0,1,.61-.61h4.39V25.833l1.388-3.47a1.107,1.107,0,0,1,1.028-.7H40V15.833h2.723a.61.61,0,0,1,.61.61V22.5H10.609A2.116,2.116,0,0,0,8.567,24.011Z" fill="#04042c"/>
</svg>
