<svg xmlns="http://www.w3.org/2000/svg" width="33.216" height="35" viewBox="0 0 33.216 35">
  <g id="strategy" transform="translate(-3.799 -2)">
    <path id="Tracé_4452" data-name="Tracé 4452" d="M7.067,19.908a.5.5,0,0,1-.4-.8A12.065,12.065,0,0,1,7.685,17.94a.5.5,0,0,1,.712.7,11,11,0,0,0-.932,1.07.5.5,0,0,1-.4.2Zm10.341,21.2A13.634,13.634,0,0,1,3.8,28.28a.5.5,0,1,1,1-.06,12.633,12.633,0,1,0,6.313-11.673.5.5,0,1,1-.461-.888,13.626,13.626,0,1,1,6.757,25.453ZM4.759,24.481a.484.484,0,0,1-.127-.016.5.5,0,0,1-.357-.61A12.117,12.117,0,0,1,4.807,22.3a.5.5,0,0,1,.924.382,11.079,11.079,0,0,0-.488,1.43.5.5,0,0,1-.483.373Z" transform="translate(0 -5.917)" fill="#04740c"/>
    <path id="Tracé_4453" data-name="Tracé 4453" d="M21.934,41.116A9.087,9.087,0,1,1,31.02,32.03a9.087,9.087,0,0,1-9.086,9.087Zm0-17.174a8.088,8.088,0,1,0,8.087,8.087,8.088,8.088,0,0,0-8.087-8.087Z" transform="translate(-4.526 -10.466)" fill="#04740c"/>
    <path id="Tracé_4454" data-name="Tracé 4454" d="M26.479,41.119a4.548,4.548,0,1,1,4.548-4.548,4.548,4.548,0,0,1-4.548,4.548Zm0-8.094a3.548,3.548,0,1,0,3.548,3.548A3.548,3.548,0,0,0,26.479,33.025Z" transform="translate(-9.065 -15.009)" fill="#04740c"/>
    <path id="Tracé_4455" data-name="Tracé 4455" d="M31.75,26.882a.5.5,0,0,1-.35-.857L44.915,12.795a.5.5,0,1,1,.7.714L32.1,26.739A.5.5,0,0,1,31.75,26.882Z" transform="translate(-13.717 -5.324)" fill="#04740c"/>
    <path id="Tracé_4456" data-name="Tracé 4456" d="M35.711,10.35h-.028l-3.839-.215a.5.5,0,0,1-.471-.462L31.068,5.6a.5.5,0,0,1,.147-.393l3.078-3.058a.5.5,0,0,1,.843.259l.65,3.353,3.013.625a.5.5,0,0,1,.25.844L36.064,10.2A.5.5,0,0,1,35.711,10.35Zm-3.373-1.19,3.178.179,2.171-2.162-2.43-.5a.5.5,0,0,1-.389-.394L34.33,3.514,32.08,5.747ZM27.586,37a.5.5,0,0,1-.409-.21l-2.224-3.135a.5.5,0,1,1,.815-.579l1.955,2.754,2.107-1.29-1.907-2.906a.5.5,0,0,1,.837-.55L30.95,34.42a.5.5,0,0,1-.157.7l-2.946,1.8a.5.5,0,0,1-.261.076ZM11.6,37a.5.5,0,0,1-.261-.074L8.4,35.123a.5.5,0,0,1-.157-.7l2.19-3.338a.5.5,0,0,1,.837.55l-1.907,2.9,2.107,1.29,1.954-2.754a.5.5,0,0,1,.816.579l-2.225,3.135A.5.5,0,0,1,11.6,37Z" transform="translate(-2.181 0)" fill="#04740c"/>
  </g>
</svg>
