<svg xmlns="http://www.w3.org/2000/svg" width="36.581" height="36" viewBox="0 0 36.581 36">
  <g id="TRANSFORMATION" transform="translate(-7.023 -7)">
    <path id="Tracé_4457" data-name="Tracé 4457" d="M97.2,86.293h6.28M88.336,101.249h4.773m19.05,0h-4.586m5.93,8.328h-6.985m-6.177-23.284v6.632m-9.618,8.325v6.632m19.143-6.632v8.328M104.68,95.747V92.925H96v2.822" transform="translate(-75.027 -73.152)" fill="none" stroke="#04740c" stroke-linecap="round" stroke-linejoin="round" stroke-width="1"/>
    <circle id="Ellipse_83" data-name="Ellipse 83" cx="1.736" cy="1.736" r="1.736" transform="translate(29.611 7.5)" fill="none" stroke="#04740c" stroke-linecap="round" stroke-linejoin="round" stroke-width="1"/>
    <path id="Tracé_4458" data-name="Tracé 4458" d="M305.668,57.868v2.459h-5.786V57.868a1.88,1.88,0,0,1,1.88-1.88h2.025A1.88,1.88,0,0,1,305.668,57.868Z" transform="translate(-271.429 -45.017)" fill="none" stroke="#04740c" stroke-linecap="round" stroke-linejoin="round" stroke-width="1"/>
    <circle id="Ellipse_84" data-name="Ellipse 84" cx="1.736" cy="1.736" r="1.736" transform="translate(19.239 22.553)" fill="none" stroke="#04740c" stroke-linecap="round" stroke-linejoin="round" stroke-width="1"/>
    <path id="Tracé_4459" data-name="Tracé 4459" d="M160.792,272.023v2.459h-5.786v-2.459a1.88,1.88,0,0,1,1.88-1.88h2.025A1.88,1.88,0,0,1,160.792,272.023Z" transform="translate(-136.924 -244.192)" fill="none" stroke="#04740c" stroke-linecap="round" stroke-linejoin="round" stroke-width="1"/>
    <circle id="Ellipse_85" data-name="Ellipse 85" cx="1.736" cy="1.736" r="1.736" transform="translate(8.68 22.553)" fill="none" stroke="#04740c" stroke-linecap="round" stroke-linejoin="round" stroke-width="1"/>
    <path id="Tracé_4460" data-name="Tracé 4460" d="M13.309,272.023v2.459H7.523v-2.459a1.88,1.88,0,0,1,1.88-1.88h2.025A1.88,1.88,0,0,1,13.309,272.023Z" transform="translate(0 -244.192)" fill="none" stroke="#04740c" stroke-linecap="round" stroke-linejoin="round" stroke-width="1"/>
    <circle id="Ellipse_86" data-name="Ellipse 86" cx="1.736" cy="1.736" r="1.736" transform="translate(38.475 22.553)" fill="none" stroke="#04740c" stroke-linecap="round" stroke-linejoin="round" stroke-width="1"/>
    <path id="Tracé_4461" data-name="Tracé 4461" d="M429.5,272.023v2.459H423.71v-2.459a1.88,1.88,0,0,1,1.88-1.88h2.025A1.88,1.88,0,0,1,429.5,272.023Z" transform="translate(-386.392 -244.192)" fill="none" stroke="#04740c" stroke-linecap="round" stroke-linejoin="round" stroke-width="1"/>
    <circle id="Ellipse_87" data-name="Ellipse 87" cx="1.736" cy="1.736" r="1.736" transform="translate(38.475 34.69)" fill="none" stroke="#04740c" stroke-linecap="round" stroke-linejoin="round" stroke-width="1"/>
    <path id="Tracé_4462" data-name="Tracé 4462" d="M429.5,445.816v2.459H423.71v-2.459a1.88,1.88,0,0,1,1.88-1.88h2.025A1.88,1.88,0,0,1,429.5,445.816Z" transform="translate(-386.392 -405.775)" fill="none" stroke="#04740c" stroke-linecap="round" stroke-linejoin="round" stroke-width="1"/>
    <circle id="Ellipse_88" data-name="Ellipse 88" cx="1.736" cy="1.736" r="1.736" transform="translate(27.917 34.69)" fill="none" stroke="#04740c" stroke-linecap="round" stroke-linejoin="round" stroke-width="1"/>
    <path id="Tracé_4463" data-name="Tracé 4463" d="M282.012,445.816v2.459h-5.786v-2.459a1.88,1.88,0,0,1,1.88-1.88h2.025A1.88,1.88,0,0,1,282.012,445.816Z" transform="translate(-249.466 -405.775)" fill="none" stroke="#04740c" stroke-linecap="round" stroke-linejoin="round" stroke-width="1"/>
    <circle id="Ellipse_89" data-name="Ellipse 89" cx="1.736" cy="1.736" r="1.736" transform="translate(27.917 22.553)" fill="none" stroke="#04740c" stroke-linecap="round" stroke-linejoin="round" stroke-width="1"/>
    <path id="Tracé_4464" data-name="Tracé 4464" d="M280.369,274.479h1.64v-2.458a1.881,1.881,0,0,0-1.881-1.881H278.1a1.881,1.881,0,0,0-1.881,1.881v2.458h1.64" transform="translate(-249.463 -244.189)" fill="none" stroke="#04740c" stroke-linecap="round" stroke-linejoin="round" stroke-width="1"/>
    <circle id="Ellipse_90" data-name="Ellipse 90" cx="1.736" cy="1.736" r="1.736" transform="translate(13.959 34.686)" fill="none" stroke="#04740c" stroke-linecap="round" stroke-linejoin="round" stroke-width="1"/>
    <path id="Tracé_4465" data-name="Tracé 4465" d="M85.409,448.229h1.639V445.77a1.88,1.88,0,0,0-1.88-1.88H83.144a1.88,1.88,0,0,0-1.881,1.88v2.459H82.9" transform="translate(-68.461 -405.732)" fill="none" stroke="#04740c" stroke-linecap="round" stroke-linejoin="round" stroke-width="1"/>
    <circle id="Ellipse_91" data-name="Ellipse 91" cx="1.736" cy="1.736" r="1.736" transform="translate(17.545 7.5)" fill="none" stroke="#04740c" stroke-linecap="round" stroke-linejoin="round" stroke-width="1"/>
    <path id="Tracé_4466" data-name="Tracé 4466" d="M135.5,60.329h1.64V57.87a1.88,1.88,0,0,0-1.88-1.88h-2.025a1.88,1.88,0,0,0-1.88,1.88v2.459h1.639" transform="translate(-114.965 -45.019)" fill="none" stroke="#04740c" stroke-linecap="round" stroke-linejoin="round" stroke-width="1"/>
  </g>
</svg>
