<svg xmlns="http://www.w3.org/2000/svg" xmlns:xlink="http://www.w3.org/1999/xlink" width="22" height="22" viewBox="0 0 22 22">
  <defs>
    <clipPath id="clip-path">
      <path id="Tracé_6231" data-name="Tracé 6231" d="M0-682.665H22v22H0Z" transform="translate(0 682.665)" fill="#04042c"/>
    </clipPath>
  </defs>
  <g id="SPONSOR" transform="translate(0 -0.002)">
    <g id="Groupe_1909" data-name="Groupe 1909" transform="translate(0 0.002)" clip-path="url(#clip-path)">
      <path id="Tracé_6221" data-name="Tracé 6221" d="M-278.718-75.041v-2.5h-4.855A4.426,4.426,0,0,0-288-73.114h0a4.426,4.426,0,0,0,4.426,4.426h4.855v-2.486" transform="translate(288.43 83.255)" fill="none" stroke="#04042c" stroke-linecap="round" stroke-linejoin="round" stroke-width="1.2"/>
      <path id="Tracé_6222" data-name="Tracé 6222" d="M0,0V5.8a.349.349,0,0,0,.349.349H2.913a.349.349,0,0,0,.269-.571l-.628-.761V0" transform="translate(5.684 14.566)" fill="none" stroke="#04042c" stroke-linecap="round" stroke-linejoin="round" stroke-width="1.2"/>
      <path id="Tracé_6223" data-name="Tracé 6223" d="M0-341.729,5.5-339.2v-13.907L0-350.581" transform="translate(9.711 356.295)" fill="none" stroke="#04042c" stroke-linecap="round" stroke-linejoin="round" stroke-width="1.2"/>
      <path id="Tracé_6224" data-name="Tracé 6224" d="M-62.855-8.922a1.366,1.366,0,0,0-1.283-.231.955.955,0,0,0-.406,1.573,4.605,4.605,0,0,0,1.263.6,1.162,1.162,0,0,1-.489,2.24,1.722,1.722,0,0,1-1.178-.317" transform="translate(84.105 17.134)" fill="none" stroke="#04042c" stroke-linecap="round" stroke-linejoin="round" stroke-width="1.2"/>
      <path id="Tracé_6225" data-name="Tracé 6225" d="M0,0V.751" transform="translate(20.335 7.04)" fill="none" stroke="#04042c" stroke-linecap="round" stroke-linejoin="round" stroke-width="1.2"/>
      <path id="Tracé_6226" data-name="Tracé 6226" d="M0,0V.751" transform="translate(20.335 12.509)" fill="none" stroke="#04042c" stroke-linecap="round" stroke-linejoin="round" stroke-width="1.2"/>
      <path id="Tracé_6227" data-name="Tracé 6227" d="M0-76.776l2.557-2.557" transform="translate(17.295 80.622)" fill="none" stroke="#04042c" stroke-linecap="round" stroke-linejoin="round" stroke-width="1.2"/>
      <path id="Tracé_6228" data-name="Tracé 6228" d="M0,0,2.557,2.557" transform="translate(17.295 16.436)" fill="none" stroke="#04042c" stroke-linecap="round" stroke-linejoin="round" stroke-width="1.2"/>
      <path id="Tracé_6229" data-name="Tracé 6229" d="M0,0H.612" transform="translate(16.916 10.141)" fill="none" stroke="#04042c" stroke-linecap="round" stroke-linejoin="round" stroke-width="1.2"/>
      <path id="Tracé_6230" data-name="Tracé 6230" d="M0,0H0" transform="translate(9.718 10.147)" fill="none" stroke="#04042c" stroke-linecap="round" stroke-linejoin="round" stroke-width="1.2"/>
    </g>
  </g>
</svg>
